# 3ds Max Wavefront OBJ Exporter v0.94b - (c)2007 guruware
# File Created: 02.08.2010 12:42:14

mtllib boletus.mtl

#
# object boletus
#

v  0.3980 0.5710 -0.0152
v  0.2842 0.6164 -0.3170
v  -0.0111 0.6279 -0.4482
v  -0.3083 0.6335 -0.3194
v  -0.4314 0.6603 -0.0218
v  -0.3151 0.6452 0.2823
v  -0.0111 0.6492 0.4001
v  0.2842 0.6106 0.2791
v  -0.0102 0.9108 -0.0393
v  0.2377 0.8101 -0.0307
v  0.1643 0.8223 -0.2077
v  -0.0078 0.8283 -0.2972
v  -0.1793 0.8455 -0.2093
v  -0.2504 0.8604 -0.0347
v  -0.1793 0.8576 0.1475
v  -0.0078 0.8514 0.2090
v  0.1643 0.8490 0.1391
v  0.3650 0.6683 -0.0206
v  0.2570 0.7191 -0.2939
v  -0.0092 0.7310 -0.4218
v  -0.2759 0.7343 -0.2964
v  -0.3864 0.7563 -0.0273
v  -0.2828 0.7370 0.2565
v  -0.0092 0.7380 0.3518
v  0.2570 0.7081 0.2432
v  0.1778 -0.0059 -0.0921
v  0.0666 -0.0174 -0.1992
v  -0.0906 -0.0216 -0.1989
v  -0.2018 -0.0236 -0.0885
v  -0.2018 -0.0269 0.0728
v  -0.0906 -0.0292 0.1820
v  0.0666 -0.0251 0.1717
v  0.1778 -0.0093 0.0592
v  -0.0120 -0.1570 -0.0147
v  0.2153 0.3452 -0.1019
v  0.0845 0.3086 -0.2249
v  -0.1005 0.3022 -0.2244
v  -0.2314 0.3236 -0.0948
v  -0.2314 0.3503 0.0932
v  -0.1005 0.3657 0.2199
v  0.0845 0.3688 0.2069
v  0.2153 0.3687 0.0735
v  0.1715 0.5008 -0.0833
v  0.0705 0.4817 -0.1795
v  -0.0724 0.4866 -0.1799
v  -0.1734 0.5118 -0.0827
v  -0.1734 0.5357 0.0606
v  -0.0724 0.5463 0.1603
v  0.0705 0.5391 0.1549
v  0.1715 0.5224 0.0542
v  0.1481 0.8560 -0.0986
v  0.0556 0.8610 -0.2012
v  -0.0725 0.8672 -0.2016
v  -0.1631 0.8818 -0.1007
v  -0.1631 0.8818 0.0275
v  -0.0725 0.8831 0.1185
v  0.0556 0.8924 0.1189
v  0.1481 0.8755 0.0295
v  0.2883 0.7468 -0.1492
v  0.1145 0.7619 -0.3239
v  -0.1307 0.7857 -0.3407
v  -0.3041 0.8068 -0.1535
v  -0.3041 0.8144 0.1017
v  -0.1307 0.8014 0.2760
v  0.1145 0.7873 0.2671
v  0.2883 0.7523 0.0962
v  0.2388 0.1669 -0.1133
v  0.0919 0.1407 -0.2543
v  -0.1159 0.1309 -0.2535
v  -0.2627 0.1359 -0.1042
v  -0.2627 0.1418 0.1092
v  -0.1159 0.1454 0.2515
v  0.0919 0.1537 0.2357
v  0.2388 0.1714 0.0851
v  0.1224 -0.0967 -0.0717
v  0.0437 -0.1044 -0.1469
v  -0.0677 -0.1055 -0.1465
v  -0.1464 -0.1055 -0.0701
v  -0.1464 -0.1055 0.0439
v  -0.0677 -0.1055 0.1220
v  0.0437 -0.1044 0.1155
v  0.1224 -0.0967 0.0361
v  0.1568 0.5600 -0.0769
v  0.0662 0.5743 -0.1664
v  -0.0619 0.5684 -0.1669
v  -0.1525 0.5898 -0.0774
v  -0.1525 0.6028 0.0516
v  -0.0619 0.5952 0.1418
v  0.0662 0.5938 0.1396
v  0.1568 0.5722 0.0493
v  0.3685 0.5966 -0.1769
v  0.1492 0.6332 -0.4119
v  -0.1715 0.6306 -0.4128
v  -0.3982 0.6472 -0.1818
v  -0.3982 0.6500 0.1390
v  -0.1715 0.6440 0.3666
v  0.1492 0.6330 0.3677
v  0.3685 0.5858 0.1441
v  0.2357 0.2525 -0.1108
v  0.0912 0.2182 -0.2484
v  -0.1132 0.2080 -0.2474
v  -0.2577 0.2216 -0.1005
v  -0.2577 0.2390 0.1090
v  -0.1132 0.2496 0.2484
v  0.0912 0.2572 0.2324
v  0.2357 0.2674 0.0836
v  0.1898 0.4323 -0.0912
v  0.0761 0.4003 -0.1974
v  -0.0847 0.3996 -0.1975
v  -0.1984 0.4257 -0.0884
v  -0.1984 0.4558 0.0732
v  -0.0847 0.4718 0.1844
v  0.0761 0.4691 0.1756
v  0.1898 0.4591 0.0615
v  0.1389 0.8630 -0.0348
v  0.0944 0.8681 -0.1412
v  -0.0088 0.8697 -0.1952
v  -0.1115 0.8866 -0.1422
v  -0.1540 0.8922 -0.0371
v  -0.1115 0.8907 0.0660
v  -0.0088 0.8867 0.1088
v  0.0944 0.8919 0.0669
v  0.2230 0.8119 -0.1260
v  0.0870 0.8121 -0.2606
v  -0.1024 0.8329 -0.2769
v  -0.2363 0.8642 -0.1291
v  -0.2363 0.8662 0.0604
v  -0.1024 0.8527 0.1949
v  0.0870 0.8434 0.1956
v  0.2230 0.8177 0.0635
v  0.3139 0.7393 -0.0255
v  0.2192 0.7512 -0.2440
v  -0.0081 0.7700 -0.3579
v  -0.2354 0.7923 -0.2613
v  -0.3295 0.8178 -0.0311
v  -0.2422 0.8058 0.2132
v  -0.0081 0.7967 0.2919
v  0.2192 0.7727 0.1993
v  0.3362 0.6785 -0.1659
v  0.1347 0.7071 -0.3694
v  -0.1531 0.7328 -0.3861
v  -0.3566 0.7457 -0.1710
v  -0.3631 0.7552 0.1227
v  -0.1596 0.7445 0.3272
v  0.1347 0.7261 0.3227
v  0.3362 0.6835 0.1223
v  0.2207 0.0827 -0.1076
v  0.0844 0.0657 -0.2391
v  -0.1084 0.0585 -0.2387
v  -0.2447 0.0572 -0.1016
v  -0.2447 0.0546 0.0963
v  -0.1084 0.0526 0.2293
v  0.0844 0.0593 0.2158
v  0.2207 0.0796 0.0773
# 154 vertices

vn 0.8034 -0.4974 -0.3274
vn 0.8057 -0.5102 0.3010
vn 0.6333 -0.7386 0.2311
vn 0.6355 -0.7308 -0.2492
vn 0.2697 -0.7513 -0.6024
vn 0.3439 -0.5032 -0.7928
vn 0.3687 -0.3359 -0.8668
vn 0.8744 -0.3257 -0.3597
vn 0.8810 -0.3270 0.3419
vn -0.2430 -0.7557 -0.6081
vn -0.3207 -0.5137 -0.7958
vn -0.3547 -0.3436 -0.8695
vn -0.5909 -0.7635 -0.2605
vn -0.7809 -0.5255 -0.3376
vn -0.8651 -0.3463 -0.3630
vn -0.5782 -0.7824 0.2311
vn -0.7693 -0.5583 0.3104
vn -0.8582 -0.3702 0.3555
vn -0.2100 -0.7901 0.5758
vn -0.2795 -0.5764 0.7679
vn -0.3146 -0.3800 0.8699
vn 0.2921 -0.7736 0.5624
vn 0.3777 -0.5441 0.7491
vn 0.4117 -0.3522 0.8405
vn 0.0271 -0.9996 -0.0011
vn 0.8693 0.2647 -0.4173
vn 0.9006 0.2578 0.3500
vn 0.9193 0.1303 0.3714
vn 0.9036 0.1417 -0.4044
vn 0.3512 0.1606 -0.9224
vn 0.3308 0.2734 -0.9032
vn 0.3334 0.2685 -0.9037
vn 0.8574 0.2899 -0.4253
vn 0.8960 0.2938 0.3330
vn -0.3820 0.1664 -0.9091
vn -0.3539 0.2792 -0.8926
vn -0.3377 0.2739 -0.9005
vn -0.9125 0.1546 -0.3787
vn -0.8747 0.2770 -0.3977
vn -0.8584 0.2961 -0.4189
vn -0.9114 0.1521 0.3825
vn -0.8898 0.2991 0.3446
vn -0.8855 0.3344 0.3228
vn -0.3406 0.1451 0.9290
vn -0.3384 0.3001 0.8919
vn -0.3419 0.3428 0.8750
vn 0.4143 0.1282 0.9011
vn 0.4042 0.2647 0.8755
vn 0.4017 0.2979 0.8660
vn 0.0578 -0.9889 -0.1370
vn -0.0184 -0.9986 -0.0495
vn 0.0220 -0.9943 0.1046
vn 0.1394 -0.9890 -0.0497
vn 0.0498 -0.9773 -0.2058
vn 0.0543 -0.9770 -0.2060
vn 0.0113 -0.9774 -0.2109
vn 0.0586 -0.9750 -0.2142
vn -0.0992 -0.9853 -0.1391
vn -0.2329 -0.9722 0.0262
vn -0.1893 -0.9772 -0.0961
vn -0.1051 -0.9742 -0.1997
vn -0.2195 -0.9754 0.0197
vn -0.2251 -0.9743 -0.0052
vn -0.1868 -0.9802 0.0655
vn -0.0711 -0.9851 0.1563
vn -0.1398 -0.9847 0.1044
vn -0.1817 -0.9832 0.0199
vn -0.0300 -0.9793 0.2003
vn -0.0602 -0.9811 0.1837
vn -0.0349 -0.9804 0.1941
vn -0.0318 -0.9831 0.1804
vn -0.0519 -0.9809 0.1873
vn 0.9430 0.3327 0.0077
vn 0.8924 0.3740 -0.2526
vn 0.8463 0.4747 -0.2417
vn 0.8951 0.4458 -0.0095
vn 0.6983 0.3577 -0.6201
vn 0.5485 0.6323 -0.5472
vn 0.4286 0.4610 -0.7770
vn 0.4209 0.5870 -0.6916
vn -0.0102 0.2553 -0.9668
vn 0.0374 0.5796 -0.8140
vn -0.3860 0.3068 -0.8700
vn -0.3324 0.5097 -0.7935
vn -0.6540 0.3648 -0.6627
vn -0.6021 0.5140 -0.6110
vn -0.8350 0.3961 -0.3819
vn -0.7662 0.5317 -0.3609
vn -0.9137 0.4060 -0.0187
vn -0.8330 0.5517 -0.0415
vn -0.8589 0.3577 0.3666
vn -0.7703 0.5466 0.3284
vn -0.6480 0.4046 0.6453
vn -0.5951 0.5198 0.6129
vn -0.3150 0.3962 0.8624
vn -0.2780 0.5444 0.7914
vn 0.0121 0.4750 0.8799
vn 0.0400 0.5839 0.8108
vn 0.3933 0.4460 0.8040
vn 0.3636 0.5716 0.7356
vn 0.6972 0.4071 0.5901
vn 0.6485 0.5369 0.5397
vn 0.8864 0.3563 0.2956
vn 0.8324 0.4850 0.2682
vn 0.3622 0.1950 -0.9115
vn 0.8687 0.2689 -0.4161
vn 0.3789 0.1500 -0.9132
vn 0.8845 0.2394 -0.4003
vn 0.8867 0.2921 0.3584
vn 0.8978 0.2947 0.3272
vn -0.3432 0.2117 -0.9151
vn -0.3524 0.1956 -0.9152
vn -0.8673 0.2692 -0.4187
vn -0.8817 0.2686 -0.3879
vn -0.8868 0.3228 0.3306
vn -0.8773 0.3323 0.3462
vn -0.3350 0.3580 0.8716
vn -0.3128 0.3840 0.8687
vn 0.3977 0.2890 0.8708
vn 0.3791 0.2807 0.8818
vn 0.3889 0.9148 -0.1096
vn 0.5760 0.7935 -0.1967
vn 0.4436 0.7991 -0.4057
vn 0.2725 0.9402 -0.2042
vn 0.3687 0.9210 -0.1259
vn 0.0647 0.9963 -0.0563
vn 0.6127 0.7893 -0.0408
vn 0.2030 0.9149 -0.3489
vn 0.2747 0.7969 -0.5380
vn 0.1397 0.8145 -0.5631
vn 0.0621 0.9486 -0.3104
vn -0.0642 0.9302 -0.3613
vn -0.1580 0.8696 -0.4677
vn -0.2858 0.8681 -0.4060
vn -0.1379 0.9569 -0.2556
vn -0.2289 0.9607 -0.1571
vn -0.3674 0.8965 -0.2477
vn -0.3944 0.9189 0.0104
vn -0.2288 0.9734 -0.0088
vn -0.2435 0.9637 0.1094
vn -0.3710 0.9192 0.1319
vn -0.2457 0.9121 0.3281
vn -0.1544 0.9752 0.1589
vn -0.0675 0.9618 0.2652
vn -0.1195 0.8943 0.4311
vn 0.0270 0.8759 0.4818
vn -0.0432 0.9743 0.2209
vn 0.0727 0.9708 0.2288
vn 0.2438 0.8213 0.5158
vn 0.4644 0.8163 0.3434
vn 0.2322 0.9702 0.0694
vn 0.3939 0.9172 -0.0600
vn 0.6348 0.7656 0.1042
vn 0.6957 0.6835 -0.2210
vn 0.4520 0.7907 -0.4129
vn 0.7584 0.6517 -0.0141
vn 0.3556 0.7344 -0.5781
vn 0.0970 0.7911 -0.6039
vn -0.2073 0.7443 -0.6348
vn -0.4492 0.7447 -0.4935
vn -0.6022 0.7259 -0.3323
vn -0.6307 0.7756 -0.0234
vn -0.5723 0.7799 0.2534
vn -0.4417 0.7600 0.4768
vn -0.1668 0.7846 0.5972
vn 0.0641 0.7737 0.6303
vn 0.3140 0.7477 0.5851
vn 0.5644 0.6970 0.4424
vn 0.7206 0.6647 0.1973
vn 0.3747 -0.0756 -0.9241
vn 0.9186 -0.0820 -0.3867
vn 0.9242 -0.0829 0.3728
vn -0.3867 -0.0681 -0.9197
vn -0.9243 -0.0712 -0.3749
vn -0.9157 -0.0917 0.3912
vn -0.3378 -0.1013 0.9357
vn 0.4240 -0.0935 0.9008
vn 0.0028 -0.9907 0.1362
# 178 vertex normals

vt 0.9384 0.9846 0.3584
vt 0.9394 0.9078 0.3597
vt 0.9874 0.9105 0.2528
vt 0.9899 0.9847 0.2567
vt 0.9874 0.3091 0.2705
vt 0.9917 0.3885 0.2795
vt 0.9439 0.3875 0.3835
vt 0.9376 0.3063 0.3763
vt 0.8982 0.3866 0.4632
vt 0.8889 0.3041 0.4581
vt 0.8868 0.9840 0.4872
vt 0.8914 0.9051 0.4666
vt 0.9923 0.4686 0.2790
vt 0.9462 0.4695 0.3830
vt 0.9022 0.4704 0.4626
vt 0.9923 0.5489 0.2697
vt 0.9473 0.5521 0.3756
vt 0.9029 0.5550 0.4573
vt 0.9923 0.6359 0.2598
vt 0.9491 0.6394 0.3712
vt 0.9043 0.6424 0.4581
vt 0.9923 0.7269 0.2460
vt 0.9504 0.7281 0.3605
vt 0.9055 0.7290 0.4507
vt 0.9917 0.8187 0.2387
vt 0.9481 0.8177 0.3488
vt 0.9018 0.8170 0.4350
vt 0.7476 0.3208 0.0000
vt 0.8050 0.3876 0.0000
vt 0.7157 0.3827 0.0000
vt 0.8124 0.2961 0.0000
vt 0.8737 0.3277 0.0000
vt 0.8950 0.3952 0.0000
vt 0.8626 0.4553 0.0000
vt 0.7967 0.4764 0.0000
vt 0.7359 0.4466 0.0000
vt 0.7347 0.9827 0.4565
vt 0.7319 0.9065 0.4304
vt 0.7889 0.9045 0.4883
vt 0.7902 0.9850 0.5101
vt 0.7957 0.3027 0.4844
vt 0.8145 0.3856 0.4842
vt 0.7649 0.3844 0.4399
vt 0.7447 0.3029 0.4431
vt 0.7145 0.3830 0.3875
vt 0.6969 0.3031 0.3923
vt 0.6804 0.9833 0.3960
vt 0.6748 0.9084 0.3725
vt 0.8201 0.4707 0.4818
vt 0.7684 0.4693 0.4347
vt 0.7149 0.4671 0.3788
vt 0.8126 0.5575 0.4803
vt 0.7566 0.5552 0.4312
vt 0.7006 0.5519 0.3706
vt 0.8031 0.6451 0.4870
vt 0.7420 0.6432 0.4340
vt 0.6840 0.6409 0.3676
vt 0.7973 0.7301 0.4850
vt 0.7335 0.7307 0.4302
vt 0.6752 0.7315 0.3620
vt 0.7931 0.8172 0.4674
vt 0.7318 0.8187 0.4198
vt 0.6767 0.8207 0.3612
vt 0.2942 0.5682 0.0000
vt 0.3749 0.5976 0.0000
vt 0.3116 0.7208 0.0000
vt 0.2637 0.6797 0.0000
vt 0.2006 0.6851 0.0000
vt 0.2135 0.5388 0.0000
vt 0.0553 0.6149 0.0000
vt 0.1344 0.5768 0.0000
vt 0.1591 0.7337 0.0000
vt 0.1637 0.7976 0.0000
vt 0.0058 0.7817 0.0000
vt 0.0305 0.6983 0.0000
vt 0.0839 0.9361 0.0000
vt 0.0449 0.8589 0.0000
vt 0.2126 0.8396 0.0000
vt 0.2760 0.8344 0.0000
vt 0.2489 0.9893 0.0000
vt 0.1664 0.9627 0.0000
vt 0.4027 0.9108 0.0000
vt 0.3258 0.9500 0.0000
vt 0.3165 0.7849 0.0000
vt 0.4567 0.7460 0.0000
vt 0.4297 0.8284 0.0000
vt 0.3137 0.0312 0.0000
vt 0.4092 0.0632 0.0000
vt 0.3935 0.1147 0.0000
vt 0.3194 0.1040 0.0000
vt 0.5048 0.0951 0.0000
vt 0.4605 0.1522 0.0000
vt 0.5548 0.1884 0.0000
vt 0.5096 0.2136 0.0000
vt 0.6049 0.2817 0.0000
vt 0.5311 0.2874 0.0000
vt 0.5669 0.3809 0.0000
vt 0.5155 0.3622 0.0000
vt 0.5289 0.4802 0.0000
vt 0.4715 0.4272 0.0000
vt 0.4321 0.5248 0.0000
vt 0.4080 0.4713 0.0000
vt 0.3353 0.5694 0.0000
vt 0.3345 0.4890 0.0000
vt 0.2362 0.5307 0.0000
vt 0.2608 0.4743 0.0000
vt 0.1371 0.4921 0.0000
vt 0.1972 0.4334 0.0000
vt 0.0979 0.3963 0.0000
vt 0.1541 0.3722 0.0000
vt 0.0588 0.3004 0.0000
vt 0.1368 0.3006 0.0000
vt 0.0964 0.2075 0.0000
vt 0.1506 0.2285 0.0000
vt 0.1340 0.1145 0.0000
vt 0.1899 0.1660 0.0000
vt 0.2238 0.0729 0.0000
vt 0.2488 0.1228 0.0000
vt 0.6698 0.3820 0.3527
vt 0.6593 0.3032 0.3566
vt 0.6279 0.3810 0.3268
vt 0.6268 0.3031 0.3285
vt 0.6201 0.9090 0.3152
vt 0.6475 0.9087 0.3438
vt 0.6500 0.9857 0.3566
vt 0.6174 0.9856 0.3285
vt 0.6671 0.4645 0.3407
vt 0.6222 0.4617 0.3115
vt 0.6533 0.5493 0.3262
vt 0.6104 0.5471 0.2897
vt 0.6401 0.6399 0.3180
vt 0.6033 0.6395 0.2770
vt 0.6343 0.7327 0.3147
vt 0.6021 0.7722 0.2780
vt 0.6383 0.8225 0.3221
vt 0.6082 0.8242 0.2927
vt 0.3550 0.2308 0.0000
vt 0.3674 0.1936 0.0000
vt 0.4044 0.2183 0.0000
vt 0.3738 0.2535 0.0000
vt 0.3279 0.2359 0.0000
vt 0.3314 0.3007 0.0000
vt 0.3252 0.1886 0.0000
vt 0.4000 0.2689 0.0000
vt 0.4358 0.2515 0.0000
vt 0.4465 0.2932 0.0000
vt 0.3983 0.2967 0.0000
vt 0.4020 0.3236 0.0000
vt 0.4388 0.3355 0.0000
vt 0.4100 0.3709 0.0000
vt 0.3770 0.3415 0.0000
vt 0.3600 0.3642 0.0000
vt 0.3751 0.3976 0.0000
vt 0.3335 0.4056 0.0000
vt 0.3327 0.3616 0.0000
vt 0.3053 0.3661 0.0000
vt 0.2915 0.4002 0.0000
vt 0.2567 0.3756 0.0000
vt 0.2882 0.3446 0.0000
vt 0.2654 0.3284 0.0000
vt 0.2304 0.3424 0.0000
vt 0.2227 0.3011 0.0000
vt 0.2685 0.3013 0.0000
vt 0.2634 0.2738 0.0000
vt 0.2276 0.2592 0.0000
vt 0.2515 0.2243 0.0000
vt 0.2850 0.2566 0.0000
vt 0.3004 0.2327 0.0000
vt 0.2840 0.1969 0.0000
vt 0.3811 0.1527 0.0000
vt 0.4345 0.1832 0.0000
vt 0.3222 0.1433 0.0000
vt 0.4744 0.2319 0.0000
vt 0.4921 0.2901 0.0000
vt 0.4786 0.3491 0.0000
vt 0.4424 0.4004 0.0000
vt 0.3919 0.4353 0.0000
vt 0.3341 0.4493 0.0000
vt 0.2760 0.4380 0.0000
vt 0.2257 0.4058 0.0000
vt 0.1914 0.3575 0.0000
vt 0.1774 0.3008 0.0000
vt 0.1880 0.2434 0.0000
vt 0.2189 0.1932 0.0000
vt 0.2659 0.1584 0.0000
vt 0.8571 0.3862 0.4943
vt 0.8427 0.3030 0.4918
vt 0.8402 0.9048 0.4775
vt 0.8356 0.9863 0.5001
vt 0.8624 0.4709 0.4933
vt 0.8597 0.5571 0.4906
vt 0.8564 0.6445 0.4958
vt 0.8545 0.7296 0.4920
vt 0.8499 0.8167 0.4735
vt 0.4158 0.6718 0.0000
# 195 texture coords

g boletus
usemtl boletus
s 1
f -129/-195/-178 -122/-194/-177 -73/-193/-176 -80/-192/-175 
f -80/-191/-175 -79/-190/-174 -128/-189/-173 -129/-188/-178 
f -129/-188/-178 -128/-189/-173 -7/-187/-172 -8/-186/-171 
f -8/-185/-171 -1/-184/-170 -122/-194/-177 -129/-195/-178 
f -79/-190/-174 -78/-183/-169 -127/-182/-168 -128/-189/-173 
f -128/-189/-173 -127/-182/-168 -6/-181/-167 -7/-187/-172 
f -78/-183/-169 -77/-180/-166 -126/-179/-165 -127/-182/-168 
f -127/-182/-168 -126/-179/-165 -5/-178/-164 -6/-181/-167 
f -77/-180/-166 -76/-177/-163 -125/-176/-162 -126/-179/-165 
f -126/-179/-165 -125/-176/-162 -4/-175/-161 -5/-178/-164 
f -76/-177/-163 -75/-174/-160 -124/-173/-159 -125/-176/-162 
f -125/-176/-162 -124/-173/-159 -3/-172/-158 -4/-175/-161 
f -75/-174/-160 -74/-171/-157 -123/-170/-156 -124/-173/-159 
f -124/-173/-159 -123/-170/-156 -2/-169/-155 -3/-172/-158 
f -74/-171/-157 -73/-193/-176 -122/-194/-177 -123/-170/-156 
f -123/-170/-156 -122/-194/-177 -1/-184/-170 -2/-169/-155 
f -74/-168/-157 -121/-167/-154 -73/-166/-176 
f -74/-168/-157 -75/-165/-160 -121/-167/-154 
f -76/-164/-163 -121/-167/-154 -75/-165/-160 
f -76/-164/-163 -77/-163/-166 -121/-167/-154 
f -78/-162/-169 -121/-167/-154 -77/-163/-166 
f -78/-162/-169 -79/-161/-174 -121/-167/-154 
f -80/-160/-175 -121/-167/-154 -79/-161/-174 
f -80/-160/-175 -73/-166/-176 -121/-167/-154 
f -120/-159/-153 -113/-158/-152 -49/-157/-151 -56/-156/-150 
f -56/-155/-150 -55/-154/-149 -119/-153/-148 -120/-152/-153 
f -120/-152/-153 -119/-153/-148 -47/-151/-147 -48/-150/-146 
f -48/-149/-146 -41/-148/-145 -113/-158/-152 -120/-159/-153 
f -55/-154/-149 -54/-147/-144 -118/-146/-143 -119/-153/-148 
f -119/-153/-148 -118/-146/-143 -46/-145/-142 -47/-151/-147 
f -54/-147/-144 -53/-144/-141 -117/-143/-140 -118/-146/-143 
f -118/-146/-143 -117/-143/-140 -45/-142/-139 -46/-145/-142 
f -53/-144/-141 -52/-141/-138 -116/-140/-137 -117/-143/-140 
f -117/-143/-140 -116/-140/-137 -44/-139/-136 -45/-142/-139 
f -52/-141/-138 -51/-138/-135 -115/-137/-134 -116/-140/-137 
f -116/-140/-137 -115/-137/-134 -43/-136/-133 -44/-139/-136 
f -51/-138/-135 -50/-135/-132 -114/-134/-131 -115/-137/-134 
f -115/-137/-134 -114/-134/-131 -42/-133/-130 -43/-136/-133 
f -50/-135/-132 -49/-157/-151 -113/-158/-152 -114/-134/-131 
f -114/-134/-131 -113/-158/-152 -41/-148/-145 -42/-133/-130 
s 2
f -64/-132/-129 -154/-131/-128 -65/-130/-127 -72/-129/-126 
f -72/-129/-126 -71/-128/-125 -153/-127/-124 -64/-132/-129 
f -71/-128/-125 -152/-126/-123 -63/-125/-122 
f -70/-124/-121 -69/-123/-120 -151/-122/-119 -62/-121/-118 
f -69/-123/-120 -150/-120/-117 -61/-119/-116 
f -68/-118/-115 -67/-117/-114 -149/-116/-113 -60/-115/-112 
f -67/-117/-114 -148/-114/-111 -59/-113/-110 
f -66/-112/-109 -65/-130/-127 -147/-111/-108 -58/-110/-107 
s 1
f -154/-109/-106 -64/-108/-105 -16/-107/-104 -137/-106/-103 
f -64/-108/-105 -153/-105/-102 -136/-104/-101 -16/-107/-104 
f -153/-105/-102 -63/-103/-100 -15/-102/-99 -136/-104/-101 
f -63/-103/-100 -152/-101/-98 -135/-100/-97 -15/-102/-99 
f -152/-101/-98 -62/-99/-96 -14/-98/-95 -135/-100/-97 
f -62/-99/-96 -151/-97/-94 -134/-96/-93 -14/-98/-95 
f -151/-97/-94 -61/-95/-92 -13/-94/-91 -134/-96/-93 
f -61/-95/-92 -150/-93/-90 -133/-92/-89 -13/-94/-91 
f -150/-93/-90 -60/-91/-88 -12/-90/-87 -133/-92/-89 
f -60/-91/-88 -149/-89/-86 -132/-88/-85 -12/-90/-87 
f -149/-89/-86 -59/-87/-84 -11/-86/-83 -132/-88/-85 
f -59/-87/-84 -148/-85/-82 -131/-84/-81 -11/-86/-83 
f -148/-85/-82 -58/-83/-80 -10/-82/-79 -131/-84/-81 
f -58/-83/-80 -147/-81/-78 -130/-80/-77 -10/-82/-79 
f -147/-81/-78 -57/-79/-76 -9/-78/-75 -130/-80/-77 
f -57/-79/-76 -154/-109/-106 -137/-106/-103 -9/-78/-75 
f -47/-151/-147 -111/-77/-74 -112/-76/-73 -48/-150/-146 
f -111/-77/-74 -71/-75/-72 -72/-74/-71 -112/-76/-73 
f -65/-73/-70 -105/-72/-69 -112/-71/-73 -72/-70/-71 
f -105/-72/-69 -41/-148/-145 -48/-149/-146 -112/-71/-73 
f -46/-145/-142 -110/-69/-68 -111/-77/-74 -47/-151/-147 
f -110/-69/-68 -70/-68/-67 -71/-75/-72 -111/-77/-74 
f -45/-142/-139 -109/-67/-66 -110/-69/-68 -46/-145/-142 
f -109/-67/-66 -69/-66/-65 -70/-68/-67 -110/-69/-68 
f -44/-139/-136 -108/-65/-64 -109/-67/-66 -45/-142/-139 
f -108/-65/-64 -68/-64/-63 -69/-66/-65 -109/-67/-66 
f -43/-136/-133 -107/-63/-62 -108/-65/-64 -44/-139/-136 
f -107/-63/-62 -67/-62/-61 -68/-64/-63 -108/-65/-64 
f -42/-133/-130 -106/-61/-60 -107/-63/-62 -43/-136/-133 
f -106/-61/-60 -66/-60/-59 -67/-62/-61 -107/-63/-62 
f -41/-148/-145 -105/-72/-69 -106/-61/-60 -42/-133/-130 
f -105/-72/-69 -65/-73/-70 -66/-60/-59 -106/-61/-60 
f -104/-59/-58 -32/-58/-57 -144/-57/-56 -39/-56/-55 
f -40/-55/-54 -104/-59/-58 -39/-56/-55 -146/-54/-53 
f -104/-59/-58 -40/-55/-54 -145/-53/-52 -32/-58/-57 
f -103/-52/-51 -31/-51/-50 -143/-50/-49 -38/-49/-48 
f -39/-56/-55 -103/-52/-51 -38/-49/-48 -146/-54/-53 
f -103/-52/-51 -39/-56/-55 -144/-57/-56 -31/-51/-50 
f -102/-48/-47 -30/-47/-46 -142/-46/-45 -37/-45/-44 
f -38/-49/-48 -102/-48/-47 -37/-45/-44 -146/-54/-53 
f -102/-48/-47 -38/-49/-48 -143/-50/-49 -30/-47/-46 
f -101/-44/-43 -29/-43/-42 -141/-42/-41 -36/-41/-40 
f -37/-45/-44 -101/-44/-43 -36/-41/-40 -146/-54/-53 
f -101/-44/-43 -37/-45/-44 -142/-46/-45 -29/-43/-42 
f -100/-40/-39 -28/-39/-38 -140/-38/-37 -35/-37/-36 
f -36/-41/-40 -100/-40/-39 -35/-37/-36 -146/-54/-53 
f -100/-40/-39 -36/-41/-40 -141/-42/-41 -28/-39/-38 
f -99/-36/-35 -27/-35/-34 -139/-34/-33 -34/-33/-32 
f -35/-37/-36 -99/-36/-35 -34/-33/-32 -146/-54/-53 
f -99/-36/-35 -35/-37/-36 -140/-38/-37 -27/-35/-34 
f -98/-32/-31 -26/-31/-30 -138/-30/-29 -33/-29/-28 
f -34/-33/-32 -98/-32/-31 -33/-29/-28 -146/-54/-53 
f -98/-32/-31 -34/-33/-32 -139/-34/-33 -26/-31/-30 
f -97/-28/-27 -25/-27/-26 -145/-53/-52 -40/-55/-54 
f -33/-29/-28 -97/-28/-27 -40/-55/-54 -146/-54/-53 
f -97/-28/-27 -33/-29/-28 -138/-30/-29 -25/-27/-26 
f -96/-26/-25 -16/-107/-104 -136/-104/-101 -23/-25/-24 
f -32/-58/-57 -96/-26/-25 -23/-25/-24 -144/-57/-56 
f -96/-26/-25 -32/-58/-57 -145/-53/-52 -24/-24/-23 
f -16/-107/-104 -96/-26/-25 -24/-24/-23 -137/-106/-103 
f -95/-23/-22 -15/-102/-99 -135/-100/-97 -22/-22/-21 
f -31/-51/-50 -95/-23/-22 -22/-22/-21 -143/-50/-49 
f -95/-23/-22 -31/-51/-50 -144/-57/-56 -23/-25/-24 
f -15/-102/-99 -95/-23/-22 -23/-25/-24 -136/-104/-101 
f -94/-21/-20 -14/-98/-95 -134/-96/-93 -21/-20/-19 
f -30/-47/-46 -94/-21/-20 -21/-20/-19 -142/-46/-45 
f -94/-21/-20 -30/-47/-46 -143/-50/-49 -22/-22/-21 
f -14/-98/-95 -94/-21/-20 -22/-22/-21 -135/-100/-97 
f -93/-19/-18 -13/-94/-91 -133/-92/-89 -20/-18/-17 
f -29/-43/-42 -93/-19/-18 -20/-18/-17 -141/-42/-41 
f -93/-19/-18 -29/-43/-42 -142/-46/-45 -21/-20/-19 
f -13/-94/-91 -93/-19/-18 -21/-20/-19 -134/-96/-93 
f -92/-17/-16 -12/-90/-87 -132/-88/-85 -19/-16/-15 
f -28/-39/-38 -92/-17/-16 -19/-16/-15 -140/-38/-37 
f -92/-17/-16 -28/-39/-38 -141/-42/-41 -20/-18/-17 
f -12/-90/-87 -92/-17/-16 -20/-18/-17 -133/-92/-89 
f -91/-15/-14 -11/-86/-83 -131/-84/-81 -18/-14/-13 
f -27/-35/-34 -91/-15/-14 -18/-14/-13 -139/-34/-33 
f -91/-15/-14 -27/-35/-34 -140/-38/-37 -19/-16/-15 
f -11/-86/-83 -91/-15/-14 -19/-16/-15 -132/-88/-85 
f -90/-13/-12 -10/-82/-79 -130/-80/-77 -17/-12/-11 
f -26/-31/-30 -90/-13/-12 -17/-12/-11 -138/-30/-29 
f -90/-13/-12 -26/-31/-30 -139/-34/-33 -18/-14/-13 
f -10/-82/-79 -90/-13/-12 -18/-14/-13 -131/-84/-81 
f -89/-11/-10 -9/-78/-75 -137/-106/-103 -24/-24/-23 
f -25/-27/-26 -89/-11/-10 -24/-24/-23 -145/-53/-52 
f -89/-11/-10 -25/-27/-26 -138/-30/-29 -17/-12/-11 
f -9/-78/-75 -89/-11/-10 -17/-12/-11 -130/-80/-77 
f -7/-187/-172 -87/-10/-9 -88/-9/-8 -8/-186/-171 
f -87/-10/-9 -55/-154/-149 -56/-155/-150 -88/-9/-8 
f -49/-157/-151 -81/-8/-7 -88/-7/-8 -56/-156/-150 
f -81/-8/-7 -1/-184/-170 -8/-185/-171 -88/-7/-8 
f -6/-181/-167 -86/-6/-6 -87/-10/-9 -7/-187/-172 
f -86/-6/-6 -54/-147/-144 -55/-154/-149 -87/-10/-9 
f -5/-178/-164 -85/-5/-5 -86/-6/-6 -6/-181/-167 
f -85/-5/-5 -53/-144/-141 -54/-147/-144 -86/-6/-6 
f -4/-175/-161 -84/-4/-4 -85/-5/-5 -5/-178/-164 
f -84/-4/-4 -52/-141/-138 -53/-144/-141 -85/-5/-5 
f -3/-172/-158 -83/-3/-3 -84/-4/-4 -4/-175/-161 
f -83/-3/-3 -51/-138/-135 -52/-141/-138 -84/-4/-4 
f -2/-169/-155 -82/-2/-2 -83/-3/-3 -3/-172/-158 
f -82/-2/-2 -50/-135/-132 -51/-138/-135 -83/-3/-3 
f -1/-184/-170 -81/-8/-7 -82/-2/-2 -2/-169/-155 
f -81/-8/-7 -49/-157/-151 -50/-135/-132 -82/-2/-2 
s 2
f -154/-131/-128 -57/-1/-1 -65/-130/-127 
f -71/-128/-125 -63/-125/-122 -153/-127/-124 
f -70/-124/-121 -62/-121/-118 -152/-126/-123 -71/-128/-125 
f -69/-123/-120 -61/-119/-116 -151/-122/-119 
f -68/-118/-115 -60/-115/-112 -150/-120/-117 -69/-123/-120 
f -67/-117/-114 -59/-113/-110 -149/-116/-113 
f -66/-112/-109 -58/-110/-107 -148/-114/-111 -67/-117/-114 
f -65/-130/-127 -57/-1/-1 -147/-111/-108 
# 144 polygons - 16 triangles

