# 3ds Max Wavefront OBJ Exporter v0.94b - (c)2007 guruware
# File Created: 02.08.2010 11:43:15

mtllib boletus_low.mtl

#
# object boletus_low
#

v  0.1356 -0.0508 -0.0193
v  0.0924 -0.0632 -0.1176
v  -0.0118 -0.0652 -0.1600
v  -0.1159 -0.0652 -0.1168
v  -0.1591 -0.0652 -0.0170
v  -0.1159 -0.0652 0.0964
v  -0.0118 -0.0652 0.1293
v  0.0924 -0.0632 0.0842
v  0.1710 0.5584 -0.0149
v  0.1213 0.5564 -0.1318
v  0.0014 0.5545 -0.1822
v  -0.1184 0.5759 -0.1327
v  -0.1681 0.5947 -0.0148
v  -0.1184 0.6002 0.1087
v  0.0014 0.5989 0.1540
v  0.1213 0.5792 0.1045
v  0.3995 0.5573 -0.0145
v  0.2890 0.5916 -0.3192
v  -0.0110 0.6258 -0.4542
v  -0.3110 0.6211 -0.3209
v  -0.4353 0.6568 -0.0220
v  -0.3110 0.6480 0.2795
v  -0.0110 0.6455 0.4037
v  0.2890 0.6059 0.2815
v  -0.0110 0.8971 -0.0385
v  0.1869 0.2479 -0.2019
v  0.2692 0.2848 -0.0141
v  -0.0118 0.2152 -0.2819
v  -0.2105 0.2251 -0.1994
v  -0.2928 0.2413 0.0069
v  -0.2105 0.2597 0.2089
v  -0.0118 0.2632 0.2770
v  0.1869 0.2775 0.1759
v  0.2042 0.4687 -0.0186
v  0.1431 0.4245 -0.1521
v  -0.0044 0.4012 -0.2110
v  -0.1518 0.4233 -0.1527
v  -0.2129 0.4551 -0.0149
v  -0.1518 0.4888 0.1423
v  -0.0044 0.4907 0.1894
v  0.1431 0.4826 0.1265
v  0.2524 0.7936 -0.0300
v  0.1727 0.8122 -0.2123
v  -0.0072 0.8077 -0.3179
v  -0.1870 0.8297 -0.2135
v  -0.2615 0.8699 -0.0346
v  -0.1870 0.8410 0.1462
v  -0.0072 0.8411 0.2208
v  0.1727 0.8247 0.1473
v  0.3819 0.6374 -0.0186
v  0.2699 0.6854 -0.3029
v  -0.0092 0.7242 -0.4444
v  -0.2882 0.7126 -0.3047
v  -0.4037 0.7409 -0.0269
v  -0.2882 0.7299 0.2537
v  -0.0092 0.7210 0.3700
v  0.2699 0.6936 0.2560
v  0.1782 0.1052 -0.1974
v  -0.0118 0.0922 -0.2760
v  -0.2018 0.0913 -0.1968
v  -0.2805 0.0846 -0.0060
v  -0.2018 0.0791 0.1935
v  -0.0118 0.0759 0.2563
v  0.1782 0.0925 0.1673
v  0.2569 0.1207 -0.0159
# 65 vertices

vn 0.8175 -0.5756 -0.0198
vn 0.5886 -0.5777 -0.5655
vn 0.6783 -0.3137 -0.6644
vn 0.9533 -0.3020 -0.0077
vn 0.0007 -0.5929 -0.8053
vn 0.0057 -0.3167 -0.9485
vn -0.5573 -0.5990 -0.5750
vn -0.6655 -0.3217 -0.6735
vn -0.7788 -0.6263 -0.0360
vn -0.9364 -0.3503 -0.0189
vn -0.5179 -0.6665 0.5363
vn -0.6391 -0.3790 0.6692
vn 0.0441 -0.6644 0.7461
vn 0.0585 -0.3859 0.9207
vn 0.5895 -0.6215 0.5159
vn 0.7005 -0.3399 0.6275
vn 0.0252 -0.9983 -0.0530
vn 0.0000 -1.0000 -0.0000
vn 0.0321 -0.9995 0.0001
vn 0.0197 -0.9998 0.0020
vn 0.0274 -0.9980 0.0573
vn -0.0382 -0.9892 0.1415
vn -0.0389 -0.9901 -0.1349
vn 0.9902 0.1382 -0.0173
vn 0.6761 0.1384 -0.7237
vn 0.6295 0.2792 -0.7251
vn 0.9438 0.3244 -0.0637
vn -0.0085 0.1330 -0.9911
vn 0.0026 0.2857 -0.9583
vn -0.7031 0.1426 -0.6966
vn -0.6415 0.2964 -0.7076
vn -0.9902 0.1393 0.0036
vn -0.9439 0.3180 -0.0892
vn -0.6847 0.1390 0.7155
vn -0.6602 0.3698 0.6537
vn 0.0576 0.1211 0.9910
vn 0.0492 0.3360 0.9406
vn 0.7167 0.1213 0.6868
vn 0.6880 0.3126 0.6549
vn 0.0266 -0.9988 0.0415
vn 0.0986 -0.9858 -0.1357
vn 0.0109 -0.9884 -0.1515
vn -0.0066 -0.9996 0.0259
vn -0.0024 -0.9772 -0.2124
vn -0.0386 -0.9712 -0.2350
vn -0.2133 -0.9770 -0.0036
vn -0.1849 -0.9789 -0.0867
vn -0.2113 -0.9749 0.0708
vn -0.2327 -0.9714 0.0465
vn -0.1152 -0.9829 0.1436
vn -0.1470 -0.9810 0.1269
vn -0.0699 -0.9799 0.1871
vn -0.0694 -0.9811 0.1805
vn -0.0391 -0.9814 0.1881
vn -0.0370 -0.9837 0.1759
vn 0.9737 0.2279 0.0033
vn 0.7450 0.2592 -0.6146
vn 0.6801 0.4766 -0.5570
vn 0.9151 0.4030 -0.0108
vn 0.0163 0.1314 -0.9912
vn 0.0198 0.4682 -0.8834
vn -0.6736 0.2883 -0.6806
vn -0.6075 0.4960 -0.6204
vn -0.9372 0.3486 -0.0115
vn -0.8398 0.5425 -0.0206
vn -0.6413 0.3859 0.6631
vn -0.5641 0.5782 0.5895
vn 0.0361 0.4056 0.9134
vn 0.0318 0.5871 0.8089
vn 0.7197 0.3373 0.6068
vn 0.6472 0.5263 0.5515
vn 0.6612 0.2451 -0.7090
vn 0.9405 0.3397 0.0059
vn -0.0017 0.1947 -0.9809
vn -0.6732 0.2365 -0.7006
vn -0.9485 0.3139 -0.0418
vn -0.6378 0.3802 0.6698
vn 0.0272 0.3136 0.9492
vn 0.6796 0.3053 0.6670
vn 0.4472 0.8368 -0.3159
vn 0.0857 0.9954 -0.0424
vn 0.6316 0.7742 -0.0419
vn 0.0433 0.8818 -0.4697
vn -0.2915 0.8635 -0.4116
vn -0.4338 0.9005 -0.0310
vn -0.2794 0.8829 0.3774
vn 0.0371 0.8806 0.4724
vn 0.4334 0.8500 0.2994
# 88 vertex normals

vt 0.9805 0.2919 0.2639
vt 0.9877 0.3735 0.2771
vt 0.8897 0.3693 0.4856
vt 0.8807 0.2847 0.4787
vt 0.9889 0.4561 0.2819
vt 0.8973 0.4561 0.4893
vt 0.9889 0.5391 0.2761
vt 0.8978 0.5431 0.4849
vt 0.9889 0.6222 0.2634
vt 0.9017 0.6318 0.4781
vt 0.9889 0.7192 0.2562
vt 0.9049 0.7239 0.4871
vt 0.9889 0.8104 0.2357
vt 0.9068 0.8104 0.4631
vt 0.9877 0.9090 0.2417
vt 0.8971 0.9050 0.4545
vt 0.9805 1.0004 0.2639
vt 0.8807 0.9932 0.4787
vt 0.7705 0.0529 0.0000
vt 0.8431 0.0529 0.0000
vt 0.8931 0.1161 0.0000
vt 0.7068 0.1767 0.0000
vt 0.8857 0.1880 0.0000
vt 0.8283 0.2362 0.0000
vt 0.7538 0.2302 0.0000
vt 0.7135 0.1023 0.0000
vt 0.7852 0.2837 0.5004
vt 0.8067 0.3681 0.5024
vt 0.7040 0.3659 0.3842
vt 0.6782 0.2874 0.3854
vt 0.8257 0.4561 0.5000
vt 0.7175 0.4521 0.3732
vt 0.8200 0.5449 0.4992
vt 0.7046 0.5405 0.3665
vt 0.8106 0.6371 0.5003
vt 0.6861 0.6263 0.3586
vt 0.7998 0.7256 0.5177
vt 0.6665 0.7240 0.3595
vt 0.7978 0.8104 0.5000
vt 0.6654 0.8148 0.3435
vt 0.7895 0.9048 0.4763
vt 0.6701 0.9089 0.3595
vt 0.7852 0.9922 0.5004
vt 0.6782 0.9960 0.3854
vt 0.2960 0.6898 0.0000
vt 0.2315 0.6696 0.0000
vt 0.2135 0.5388 0.0000
vt 0.3749 0.5976 0.0000
vt 0.1697 0.7006 0.0000
vt 0.0553 0.6149 0.0000
vt 0.1484 0.7669 0.0000
vt 0.0058 0.7817 0.0000
vt 0.1790 0.8282 0.0000
vt 0.0839 0.9361 0.0000
vt 0.2462 0.8509 0.0000
vt 0.2489 0.9893 0.0000
vt 0.3059 0.8180 0.0000
vt 0.4027 0.9108 0.0000
vt 0.3272 0.7518 0.0000
vt 0.4567 0.7460 0.0000
vt 0.3137 0.0312 0.0000
vt 0.5048 0.0951 0.0000
vt 0.4736 0.1357 0.0000
vt 0.3171 0.0840 0.0000
vt 0.6049 0.2817 0.0000
vt 0.5555 0.2868 0.0000
vt 0.5289 0.4802 0.0000
vt 0.4845 0.4406 0.0000
vt 0.3353 0.5694 0.0000
vt 0.3346 0.5095 0.0000
vt 0.1371 0.4921 0.0000
vt 0.1847 0.4457 0.0000
vt 0.0588 0.3004 0.0000
vt 0.1162 0.3007 0.0000
vt 0.1340 0.1145 0.0000
vt 0.1769 0.1530 0.0000
vt 0.6272 0.3662 0.3310
vt 0.6260 0.2867 0.3259
vt 0.6283 0.4479 0.3225
vt 0.6158 0.5332 0.3005
vt 0.6049 0.6244 0.2790
vt 0.6017 0.7245 0.2749
vt 0.6025 0.8199 0.2810
vt 0.6139 0.9109 0.3045
vt 0.6260 0.9953 0.3259
vt 0.4088 0.2126 0.0000
vt 0.3314 0.3016 0.0000
vt 0.3248 0.1783 0.0000
vt 0.4598 0.2926 0.0000
vt 0.4147 0.3766 0.0000
vt 0.3339 0.4144 0.0000
vt 0.2507 0.3821 0.0000
vt 0.2140 0.3015 0.0000
vt 0.2449 0.2182 0.0000
# 94 texture coords

g boletus_low
usemtl boletus
s 1
f -65/-94/-88 -64/-93/-87 -8/-92/-86 -1/-91/-85 
f -64/-93/-87 -63/-90/-84 -7/-89/-83 -8/-92/-86 
f -62/-88/-82 -6/-87/-81 -7/-89/-83 -63/-90/-84 
f -61/-86/-80 -5/-85/-79 -6/-87/-81 -62/-88/-82 
f -60/-84/-78 -4/-83/-77 -5/-85/-79 -61/-86/-80 
f -59/-82/-76 -3/-81/-75 -4/-83/-77 -60/-84/-78 
f -58/-80/-74 -2/-79/-73 -3/-81/-75 -59/-82/-76 
f -65/-78/-88 -1/-77/-85 -2/-79/-73 -58/-80/-74 
s 8
f -59/-76/-72 -60/-75/-71 -61/-74/-70 -65/-73/-69 
f -61/-74/-70 -62/-72/-71 -63/-71/-68 -65/-73/-69 
f -63/-71/-68 -64/-70/-67 -65/-73/-69 
f -58/-69/-66 -59/-76/-72 -65/-73/-69 
s 1
f -39/-68/-65 -40/-67/-64 -31/-66/-63 -32/-65/-62 
f -40/-67/-64 -38/-64/-61 -30/-63/-60 -31/-66/-63 
f -38/-64/-61 -37/-62/-59 -29/-61/-58 -30/-63/-60 
f -36/-60/-57 -28/-59/-56 -29/-61/-58 -37/-62/-59 
f -35/-58/-55 -27/-57/-54 -28/-59/-56 -36/-60/-57 
f -34/-56/-53 -26/-55/-52 -27/-57/-54 -35/-58/-55 
f -33/-54/-51 -25/-53/-50 -26/-55/-52 -34/-56/-53 
f -39/-52/-65 -32/-51/-62 -25/-53/-50 -33/-54/-51 
s 2
f -57/-50/-49 -56/-49/-48 -48/-48/-47 -49/-47/-46 
f -56/-49/-48 -55/-46/-45 -47/-45/-44 -48/-48/-47 
f -55/-46/-45 -54/-44/-43 -46/-43/-42 -47/-45/-44 
f -54/-44/-43 -53/-42/-41 -45/-41/-40 -46/-43/-42 
f -53/-42/-41 -52/-40/-39 -44/-39/-38 -45/-41/-40 
f -52/-40/-39 -51/-38/-37 -43/-37/-36 -44/-39/-38 
f -51/-38/-37 -50/-36/-35 -42/-35/-34 -43/-37/-36 
f -50/-36/-35 -57/-50/-49 -49/-47/-46 -42/-35/-34 
s 1
f -49/-34/-33 -48/-33/-32 -15/-32/-31 -16/-31/-30 
f -47/-30/-29 -14/-29/-28 -15/-32/-31 -48/-33/-32 
f -47/-30/-29 -46/-28/-27 -13/-27/-26 -14/-29/-28 
f -45/-26/-25 -12/-25/-24 -13/-27/-26 -46/-28/-27 
f -44/-24/-23 -11/-23/-22 -12/-25/-24 -45/-26/-25 
f -43/-22/-21 -10/-21/-20 -11/-23/-22 -44/-24/-23 
f -42/-20/-19 -9/-19/-18 -10/-21/-20 -43/-22/-21 
f -49/-34/-33 -16/-31/-30 -9/-19/-18 -42/-20/-19 
f -56/-18/-17 -57/-17/-16 -32/-65/-62 -31/-66/-63 
f -55/-16/-15 -56/-18/-17 -31/-66/-63 -30/-63/-60 
f -54/-15/-14 -55/-16/-15 -30/-63/-60 -29/-61/-58 
f -53/-14/-13 -54/-15/-14 -29/-61/-58 -28/-59/-56 
f -27/-57/-54 -52/-13/-12 -53/-14/-13 -28/-59/-56 
f -26/-55/-52 -51/-12/-11 -52/-13/-12 -27/-57/-54 
f -25/-53/-50 -50/-11/-10 -51/-12/-11 -26/-55/-52 
f -57/-10/-16 -50/-11/-10 -25/-53/-50 -32/-51/-62 
f -23/-9/-9 -41/-8/-8 -24/-7/-7 
f -22/-6/-6 -41/-8/-8 -23/-9/-9 
f -21/-5/-5 -41/-8/-8 -22/-6/-6 
f -20/-4/-4 -41/-8/-8 -21/-5/-5 
f -19/-3/-3 -41/-8/-8 -20/-4/-4 
f -18/-2/-2 -41/-8/-8 -19/-3/-3 
f -17/-1/-1 -41/-8/-8 -18/-2/-2 
f -24/-7/-7 -41/-8/-8 -17/-1/-1 
f -23/-9/-9 -24/-7/-7 -16/-31/-30 -15/-32/-31 
f -14/-29/-28 -22/-6/-6 -23/-9/-9 -15/-32/-31 
f -21/-5/-5 -22/-6/-6 -14/-29/-28 -13/-27/-26 
f -20/-4/-4 -21/-5/-5 -13/-27/-26 -12/-25/-24 
f -11/-23/-22 -19/-3/-3 -20/-4/-4 -12/-25/-24 
f -10/-21/-20 -18/-2/-2 -19/-3/-3 -11/-23/-22 
f -9/-19/-18 -17/-1/-1 -18/-2/-2 -10/-21/-20 
f -24/-7/-7 -17/-1/-1 -9/-19/-18 -16/-31/-30 
f -40/-67/-64 -39/-68/-65 -1/-91/-85 -8/-92/-86 
f -38/-64/-61 -40/-67/-64 -8/-92/-86 -7/-89/-83 
f -6/-87/-81 -37/-62/-59 -38/-64/-61 -7/-89/-83 
f -5/-85/-79 -36/-60/-57 -37/-62/-59 -6/-87/-81 
f -4/-83/-77 -35/-58/-55 -36/-60/-57 -5/-85/-79 
f -34/-56/-53 -35/-58/-55 -4/-83/-77 -3/-81/-75 
f -2/-79/-73 -33/-54/-51 -34/-56/-53 -3/-81/-75 
f -1/-77/-85 -39/-52/-65 -33/-54/-51 -2/-79/-73 
# 58 polygons - 10 triangles

