# 3ds Max Wavefront OBJ Exporter v0.94b - (c)2007 guruware
# File Created: 02.08.2010 11:40:33

mtllib Big_ambrella_low.mtl

#
# object big_ambrela_low
#

v  0.0590 -0.1394 -0.0007
v  0.0400 -0.1394 -0.0466
v  -0.0059 -0.1394 -0.0656
v  -0.0518 -0.1394 -0.0466
v  -0.0708 -0.1394 -0.0007
v  -0.0518 -0.1394 0.0451
v  -0.0059 -0.1394 0.0641
v  0.0400 -0.1394 0.0451
v  0.0969 0.2122 -0.0007
v  0.0685 0.2122 -0.0692
v  0.0001 0.2122 -0.0975
v  -0.0683 0.2122 -0.0692
v  -0.0966 0.2122 -0.0007
v  -0.0683 0.2122 0.0677
v  0.0001 0.2122 0.0960
v  0.0685 0.2122 0.0677
v  0.0544 1.2742 0.0038
v  0.0395 1.2744 -0.0320
v  0.0037 1.2803 -0.0468
v  -0.0321 1.2682 -0.0320
v  -0.0470 1.2756 0.0038
v  -0.0321 1.2809 0.0397
v  0.0037 1.2840 0.0545
v  0.0395 1.2744 0.0397
v  0.5288 1.1884 -0.0034
v  0.3894 1.1954 -0.3889
v  0.0060 1.2418 -0.6145
v  -0.4247 1.3222 -0.4060
v  -0.5842 1.3037 0.0247
v  -0.4250 1.2026 0.4263
v  0.0054 1.1679 0.6040
v  0.4362 1.1769 0.4264
v  0.0041 1.6025 0.0438
v  0.1018 0.0785 -0.1025
v  0.1440 0.0785 -0.0007
v  0.0001 0.0785 -0.1446
v  -0.1016 0.0785 -0.1025
v  -0.1437 0.0785 -0.0007
v  -0.1016 0.0785 0.1010
v  0.0001 0.0785 0.1431
v  0.1018 0.0785 0.1010
v  0.0473 0.9154 0.0014
v  0.0319 0.9149 -0.0359
v  -0.0054 0.9139 -0.0513
v  -0.0427 0.9129 -0.0359
v  -0.0581 0.9000 0.0014
v  -0.0427 0.8872 0.0387
v  -0.0054 0.8921 0.0541
v  0.0319 0.9025 0.0387
v  0.1579 0.9215 0.0015
v  0.1101 0.9021 -0.1139
v  -0.0054 0.9130 -0.1618
v  -0.1208 0.9137 -0.1139
v  -0.1686 0.9027 0.0015
v  -0.1208 0.8730 0.1170
v  -0.0054 0.8896 0.1648
v  0.1101 0.9021 0.1170
v  0.3647 1.2787 0.0039
v  0.2326 1.2967 -0.2280
v  0.0017 1.3103 -0.3632
v  -0.2560 1.3107 -0.2365
v  -0.3616 1.3125 0.0213
v  -0.2546 1.2873 0.2601
v  0.0014 1.2843 0.3652
v  0.2573 1.2682 0.2597
v  0.0534 0.9533 0.0016
v  0.0363 0.9404 -0.0396
v  -0.0049 0.9444 -0.0566
v  -0.0461 0.9503 -0.0396
v  -0.0631 0.9406 0.0016
v  -0.0461 0.9307 0.0429
v  -0.0049 0.9365 0.0599
v  0.0363 0.9404 0.0429
v  0.1914 1.4596 0.0057
v  0.1158 1.4444 -0.0995
v  -0.0025 1.4481 -0.1970
v  -0.1629 1.4483 -0.1443
v  -0.2300 1.4495 0.0195
v  -0.1620 1.4335 0.1712
v  0.0006 1.4316 0.2379
v  0.1632 1.4471 0.1710
# 81 vertices

vn 0.6572 -0.3569 -0.6639
vn 0.7084 -0.0123 -0.7057
vn 0.9999 -0.0155 -0.0000
vn 0.9316 -0.3635 -0.0000
vn -0.0068 -0.3407 -0.9401
vn 0.0028 -0.0044 -1.0000
vn -0.6723 -0.3244 -0.6654
vn -0.7057 0.0037 -0.7085
vn -0.9482 -0.3176 -0.0000
vn -1.0000 0.0071 0.0000
vn -0.6723 -0.3244 0.6654
vn -0.7057 0.0037 0.7085
vn -0.0068 -0.3407 0.9401
vn 0.0028 -0.0044 1.0000
vn 0.6572 -0.3569 0.6639
vn 0.7084 -0.0123 0.7057
vn 0.0000 -1.0000 -0.0000
vn 0.6917 0.2097 -0.6911
vn 0.9777 0.2098 -0.0003
vn 0.0009 0.2075 -0.9782
vn -0.6916 0.2045 -0.6928
vn -0.9793 0.2026 -0.0002
vn -0.6920 0.2032 0.6927
vn 0.0009 0.2057 0.9786
vn 0.6920 0.2082 0.6912
vn 0.7074 0.0702 -0.7033
vn 0.9969 0.0713 -0.0339
vn 0.0032 0.0657 -0.9978
vn -0.6786 0.0603 -0.7320
vn -0.9964 0.0567 -0.0625
vn -0.7174 0.0567 0.6944
vn 0.0336 0.0608 0.9976
vn 0.7405 0.0674 0.6687
vn -0.1735 -0.9848 -0.0075
vn -0.1677 -0.9838 0.0631
vn -0.1659 -0.9845 0.0564
vn -0.1781 -0.9839 -0.0118
vn -0.0767 -0.9959 -0.0469
vn -0.1554 -0.9857 0.0654
vn 0.0636 -0.9895 -0.1300
vn -0.1035 -0.9946 -0.0112
vn 0.0347 -0.9976 0.0606
vn -0.0648 -0.9879 -0.1407
vn 0.1682 -0.9824 -0.0810
vn -0.0203 -0.9792 -0.2020
vn 0.0002 -0.9892 -0.1469
vn -0.0271 -0.9791 -0.2017
vn -0.2159 -0.9761 -0.0260
vn -0.1232 -0.9832 -0.1350
vn 0.4109 0.8486 -0.3333
vn 0.4474 0.7499 -0.4874
vn 0.6538 0.7473 -0.1183
vn 0.5743 0.8182 0.0256
vn 0.1044 0.9227 -0.3712
vn 0.1157 0.7840 -0.6099
vn -0.2065 0.9598 -0.1902
vn -0.4367 0.7602 -0.4810
vn -0.3472 0.9330 0.0941
vn -0.6534 0.7561 0.0376
vn -0.3153 0.8493 0.4233
vn -0.4661 0.7067 0.5323
vn 0.0105 0.8224 0.5687
vn -0.0058 0.6839 0.7296
vn 0.4105 0.8386 0.3582
vn 0.5504 0.6749 0.4915
vn -0.0498 -0.9951 0.0856
vn 0.0775 -0.9969 -0.0121
vn 0.0173 -0.9945 -0.1031
vn -0.0792 -0.9959 0.0431
vn -0.0414 -0.9989 0.0233
vn 0.0156 -0.9999 -0.0002
vn 0.0209 -0.9973 -0.0701
vn 0.1214 -0.9838 -0.1317
vn 0.0329 -0.9699 -0.2411
vn -0.0348 -0.9834 -0.1782
vn 0.0540 -0.9875 -0.1481
vn 0.0513 -0.9904 -0.1283
vn 0.1242 -0.9920 -0.0241
vn 0.1399 -0.9883 -0.0615
vn 0.1177 -0.9888 -0.0919
vn 0.1377 -0.9704 -0.1985
vn 0.4821 0.6774 -0.5556
vn 0.8060 0.5919 -0.0011
vn 0.2538 0.9673 -0.0001
vn 0.2180 0.9388 -0.2666
vn 0.0585 0.9514 -0.3024
vn 0.0935 0.6889 -0.7188
vn -0.5538 0.6625 -0.5044
vn -0.2627 0.9437 -0.2012
vn -0.3514 0.9198 0.1746
vn -0.7375 0.6520 0.1761
vn -0.5238 0.6264 0.5773
vn -0.3041 0.8758 0.3748
vn -0.1184 0.9065 0.4052
vn -0.0869 0.6136 0.7848
vn 0.1498 0.9306 0.3339
vn 0.4456 0.6490 0.6166
vn 0.4565 0.8896 0.0146
vn 0.3575 0.9042 -0.2336
vn 0.1512 0.9508 -0.2703
vn 0.0283 0.9993 -0.0257
vn -0.0239 0.9904 0.1359
vn -0.1197 0.9421 0.3133
vn 0.0189 0.9049 0.4252
vn 0.2715 0.9298 0.2483
vn 0.6979 0.0094 -0.7161
vn 1.0000 -0.0030 0.0016
vn 0.0265 0.0285 -0.9992
vn -0.6963 0.0451 -0.7163
vn -0.9982 0.0479 0.0371
vn -0.6845 0.0348 0.7282
vn -0.0173 0.0159 0.9997
vn 0.6881 0.0001 0.7256
vn 0.0375 0.9976 0.0575
# 114 vertex normals

vt 0.6316 0.2696 0.2541
vt 0.6269 0.3779 0.5000
vt 0.5744 0.3779 0.5000
vt 0.5744 0.2696 0.2461
vt 0.6855 0.2696 0.2725
vt 0.6794 0.3779 0.5000
vt 0.7360 0.2696 0.2897
vt 0.7318 0.3779 0.5000
vt 0.7843 0.2696 0.2965
vt 0.7843 0.3779 0.5000
vt 0.8327 0.2696 0.2897
vt 0.8368 0.3779 0.5000
vt 0.8831 0.2696 0.2725
vt 0.8893 0.3779 0.5000
vt 0.9371 0.2696 0.2541
vt 0.9418 0.3779 0.5000
vt 0.9942 0.2696 0.2461
vt 0.9942 0.3779 0.5000
vt 0.4978 0.3809 0.0000
vt 0.4525 0.3996 0.0000
vt 0.4337 0.4449 0.0000
vt 0.5619 0.4449 0.0000
vt 0.4525 0.4903 0.0000
vt 0.4978 0.5090 0.0000
vt 0.5431 0.4903 0.0000
vt 0.5431 0.3996 0.0000
vt 0.6269 0.4520 0.2773
vt 0.5744 0.4520 0.2773
vt 0.6794 0.4520 0.2773
vt 0.7318 0.4520 0.2773
vt 0.7843 0.4520 0.2773
vt 0.8368 0.4520 0.2773
vt 0.8893 0.4520 0.2773
vt 0.9418 0.4520 0.2773
vt 0.9942 0.4520 0.2773
vt 0.6303 0.9974 0.1982
vt 0.5714 0.9976 0.1976
vt 0.6866 0.9971 0.2129
vt 0.7384 0.9968 0.2317
vt 0.7868 0.9929 0.2437
vt 0.8341 0.9891 0.2433
vt 0.8826 0.9906 0.2306
vt 0.9346 0.9937 0.2117
vt 0.9912 0.9976 0.1976
vt 0.2666 0.1951 0.0000
vt 0.2511 0.2064 0.0000
vt 0.0806 0.1049 0.0000
vt 0.2196 0.0130 0.0000
vt 0.2482 0.2254 0.0000
vt 0.0285 0.2793 0.0000
vt 0.2595 0.2406 0.0000
vt 0.1526 0.4294 0.0000
vt 0.2784 0.2437 0.0000
vt 0.3401 0.4584 0.0000
vt 0.2939 0.2324 0.0000
vt 0.4817 0.3486 0.0000
vt 0.2968 0.2136 0.0000
vt 0.5103 0.1613 0.0000
vt 0.2855 0.1980 0.0000
vt 0.3985 0.0087 0.0000
vt 0.3502 0.5400 0.0000
vt 0.3128 0.6277 0.0000
vt 0.2385 0.6120 0.0000
vt 0.2012 0.5245 0.0000
vt 0.4728 0.6304 0.0000
vt 0.3932 0.6688 0.0000
vt 0.4650 0.7919 0.0000
vt 0.4022 0.7677 0.0000
vt 0.3553 0.9044 0.0000
vt 0.3295 0.8423 0.0000
vt 0.2075 0.9020 0.0000
vt 0.2313 0.8407 0.0000
vt 0.0958 0.7933 0.0000
vt 0.1572 0.7686 0.0000
vt 0.0934 0.6382 0.0000
vt 0.1556 0.6656 0.0000
vt 0.9080 0.2197 0.0000
vt 0.9459 0.1281 0.0000
vt 0.8582 0.1282 0.0000
vt 0.8459 0.1578 0.0000
vt 0.8164 0.2577 0.0000
vt 0.8163 0.1700 0.0000
vt 0.7248 0.2197 0.0000
vt 0.7867 0.1578 0.0000
vt 0.7745 0.1282 0.0000
vt 0.6868 0.1281 0.0000
vt 0.7867 0.0986 0.0000
vt 0.7248 0.0364 0.0000
vt 0.8164 -0.0015 0.0000
vt 0.8163 0.0863 0.0000
vt 0.9080 0.0364 0.0000
vt 0.8459 0.0986 0.0000
vt 0.8495 0.1607 0.0000
vt 0.8630 0.1280 0.0000
vt 0.8168 0.1742 0.0000
vt 0.7841 0.1607 0.0000
vt 0.7705 0.1280 0.0000
vt 0.7841 0.0953 0.0000
vt 0.8168 0.0817 0.0000
vt 0.8495 0.0953 0.0000
vt 0.1826 0.4747 0.0000
vt 0.3806 0.4613 0.0000
vt 0.5564 0.5904 0.0000
vt 0.5466 0.8223 0.0000
vt 0.3892 0.9851 0.0000
vt 0.1753 0.9824 0.0000
vt 0.0131 0.8252 0.0000
vt 0.0098 0.6002 0.0000
vt 0.6239 0.9862 0.2104
vt 0.5740 0.9861 0.2278
vt 0.5766 0.7847 0.2230
vt 0.6338 0.7808 0.2220
vt 0.6892 0.7820 0.2347
vt 0.6782 0.9879 0.1934
vt 0.7363 0.9843 0.1878
vt 0.7409 0.7838 0.2523
vt 0.7896 0.7809 0.2647
vt 0.7935 0.9865 0.1978
vt 0.8464 0.9881 0.2162
vt 0.8371 0.7779 0.2656
vt 0.8855 0.7797 0.2545
vt 0.8952 0.9890 0.2316
vt 0.9420 0.9862 0.2361
vt 0.9367 0.7808 0.2370
vt 0.9891 0.9861 0.2278
vt 0.9917 0.7847 0.2230
vt 0.2639 0.7254 0.0000
# 127 texture coords

g big_ambrela_low
usemtl ambrela
s 1
f -80/-127/-114 -48/-126/-113 -47/-125/-112 -81/-124/-111 
f -79/-123/-110 -46/-122/-109 -48/-126/-113 -80/-127/-114 
f -78/-121/-108 -45/-120/-107 -46/-122/-109 -79/-123/-110 
f -77/-119/-106 -44/-118/-105 -45/-120/-107 -78/-121/-108 
f -76/-117/-104 -43/-116/-103 -44/-118/-105 -77/-119/-106 
f -75/-115/-102 -42/-114/-101 -43/-116/-103 -76/-117/-104 
f -74/-113/-100 -41/-112/-99 -42/-114/-101 -75/-115/-102 
f -81/-111/-111 -47/-110/-112 -41/-112/-99 -74/-113/-100 
s 2
f -75/-109/-98 -76/-108/-98 -77/-107/-98 -81/-106/-98 
f -77/-107/-98 -78/-105/-98 -79/-104/-98 -81/-106/-98 
f -79/-104/-98 -80/-103/-98 -81/-106/-98 
f -74/-102/-98 -75/-109/-98 -81/-106/-98 
s 3
f -47/-125/-112 -48/-126/-113 -72/-101/-97 -73/-100/-96 
f -48/-126/-113 -46/-122/-109 -71/-99/-95 -72/-101/-97 
f -46/-122/-109 -45/-120/-107 -70/-98/-94 -71/-99/-95 
f -45/-120/-107 -44/-118/-105 -69/-97/-93 -70/-98/-94 
f -44/-118/-105 -43/-116/-103 -68/-96/-92 -69/-97/-93 
f -43/-116/-103 -42/-114/-101 -67/-95/-91 -68/-96/-92 
f -41/-112/-99 -66/-94/-90 -67/-95/-91 -42/-114/-101 
f -41/-112/-99 -47/-110/-112 -73/-93/-96 -66/-94/-90 
s 1
f -73/-100/-96 -72/-101/-97 -39/-92/-89 -40/-91/-88 
f -71/-99/-95 -38/-90/-87 -39/-92/-89 -72/-101/-97 
f -70/-98/-94 -37/-89/-86 -38/-90/-87 -71/-99/-95 
f -69/-97/-93 -36/-88/-85 -37/-89/-86 -70/-98/-94 
f -68/-96/-92 -35/-87/-84 -36/-88/-85 -69/-97/-93 
f -67/-95/-91 -34/-86/-83 -35/-87/-84 -68/-96/-92 
f -66/-94/-90 -33/-85/-82 -34/-86/-83 -67/-95/-91 
f -66/-94/-90 -73/-93/-96 -40/-84/-88 -33/-85/-82 
s 2
f -65/-83/-81 -64/-82/-80 -56/-81/-79 -57/-80/-78 
f -64/-82/-80 -63/-79/-77 -55/-78/-76 -56/-81/-79 
f -63/-79/-77 -62/-77/-75 -54/-76/-74 -55/-78/-76 
f -62/-77/-75 -61/-75/-73 -53/-74/-72 -54/-76/-74 
f -61/-75/-73 -60/-73/-71 -52/-72/-70 -53/-74/-72 
f -60/-73/-71 -59/-71/-69 -51/-70/-68 -52/-72/-70 
f -59/-71/-69 -58/-69/-67 -50/-68/-66 -51/-70/-68 
f -58/-69/-67 -65/-83/-81 -57/-80/-78 -50/-68/-66 
s 1
f -23/-67/-65 -7/-66/-64 -8/-65/-63 -24/-64/-62 
f -22/-63/-61 -6/-62/-60 -7/-66/-64 -23/-67/-65 
f -21/-61/-59 -5/-60/-58 -6/-62/-60 -22/-63/-61 
f -20/-59/-57 -4/-58/-56 -5/-60/-58 -21/-61/-59 
f -19/-57/-55 -3/-56/-54 -4/-58/-56 -20/-59/-57 
f -18/-55/-53 -2/-54/-52 -3/-56/-54 -19/-57/-55 
f -17/-53/-51 -1/-52/-50 -2/-54/-52 -18/-55/-53 
f -17/-53/-51 -24/-64/-62 -8/-65/-63 -1/-52/-50 
s 2
f -31/-51/-49 -32/-50/-48 -40/-49/-47 -39/-48/-46 
f -30/-47/-45 -31/-51/-49 -39/-48/-46 -38/-46/-44 
f -29/-45/-43 -30/-47/-45 -38/-46/-44 -37/-44/-42 
f -36/-43/-41 -28/-42/-40 -29/-45/-43 -37/-44/-42 
f -35/-41/-39 -27/-40/-38 -28/-42/-40 -36/-43/-41 
f -26/-39/-37 -27/-40/-38 -35/-41/-39 -34/-38/-36 
f -25/-37/-35 -26/-39/-37 -34/-38/-36 -33/-36/-34 
f -32/-50/-48 -25/-37/-35 -33/-36/-34 -40/-49/-47 
s 1
f -15/-35/-33 -16/-34/-32 -32/-50/-31 -31/-51/-30 
f -30/-47/-29 -14/-33/-28 -15/-35/-33 -31/-51/-30 
f -13/-32/-27 -14/-33/-28 -30/-47/-29 -29/-45/-26 
f -28/-42/-25 -12/-31/-24 -13/-32/-27 -29/-45/-26 
f -11/-30/-23 -12/-31/-24 -28/-42/-25 -27/-40/-22 
f -26/-39/-21 -10/-29/-20 -11/-30/-23 -27/-40/-22 
f -25/-37/-19 -9/-28/-18 -10/-29/-20 -26/-39/-21 
f -32/-50/-31 -16/-34/-32 -9/-28/-18 -25/-37/-19 
f -24/-64/-62 -57/-27/-17 -56/-26/-16 -23/-67/-65 
f -23/-67/-65 -56/-26/-16 -55/-25/-15 -22/-63/-61 
f -22/-63/-61 -55/-25/-15 -54/-24/-14 -21/-61/-59 
f -21/-61/-59 -54/-24/-14 -53/-23/-13 -20/-59/-57 
f -20/-59/-57 -53/-23/-13 -52/-22/-12 -19/-57/-55 
f -19/-57/-55 -52/-22/-12 -51/-21/-11 -18/-55/-53 
f -18/-55/-53 -51/-21/-11 -50/-20/-10 -17/-53/-51 
f -17/-53/-51 -50/-20/-10 -57/-27/-17 -24/-64/-62 
f -64/-19/-9 -65/-18/-8 -16/-17/-32 -15/-16/-33 
f -14/-15/-28 -63/-14/-7 -64/-19/-9 -15/-16/-33 
f -62/-13/-6 -63/-14/-7 -14/-15/-28 -13/-12/-27 
f -12/-11/-24 -61/-10/-5 -62/-13/-6 -13/-12/-27 
f -60/-9/-4 -61/-10/-5 -12/-11/-24 -11/-8/-23 
f -10/-7/-20 -59/-6/-3 -60/-9/-4 -11/-8/-23 
f -58/-5/-2 -59/-6/-3 -10/-7/-20 -9/-4/-18 
f -65/-3/-8 -58/-5/-2 -9/-4/-18 -16/-2/-32 
f -7/-66/-64 -49/-1/-1 -8/-65/-63 
f -6/-62/-60 -49/-1/-1 -7/-66/-64 
f -5/-60/-58 -49/-1/-1 -6/-62/-60 
f -4/-58/-56 -49/-1/-1 -5/-60/-58 
f -3/-56/-54 -49/-1/-1 -4/-58/-56 
f -2/-54/-52 -49/-1/-1 -3/-56/-54 
f -1/-52/-50 -49/-1/-1 -2/-54/-52 
f -8/-65/-63 -49/-1/-1 -1/-52/-50 
# 74 polygons - 10 triangles

