# 3ds Max Wavefront OBJ Exporter v0.94b - (c)2007 guruware
# File Created: 02.08.2010 11:34:40

mtllib amanita_a_low.mtl

#
# object amanita_A_low
#

v  0.0824 -0.1368 -0.0004
v  0.0562 -0.1368 -0.0636
v  -0.0070 -0.1368 -0.0897
v  -0.0701 -0.1368 -0.0636
v  -0.0963 -0.1368 -0.0004
v  -0.0701 -0.1368 0.0628
v  -0.0070 -0.1368 0.0890
v  0.0562 -0.1368 0.0628
v  0.0949 0.1766 -0.0004
v  0.0672 0.1910 -0.0673
v  0.0003 0.1910 -0.0950
v  -0.0666 0.1778 -0.0673
v  -0.0944 0.1910 -0.0004
v  -0.0666 0.1910 0.0665
v  0.0003 0.2047 0.0942
v  0.0672 0.1910 0.0665
v  0.0812 0.6822 0.0029
v  0.0579 0.6825 -0.0533
v  0.0017 0.6917 -0.0766
v  -0.0448 0.6969 -0.0421
v  -0.0778 0.6843 0.0029
v  -0.0545 0.6926 0.0591
v  0.0017 0.6975 0.0823
v  0.0579 0.6825 0.0591
v  0.5910 0.8104 -0.0042
v  0.3748 0.7743 -0.3772
v  0.0031 0.8630 -0.5960
v  -0.4145 0.8614 -0.3938
v  -0.5876 0.8650 0.0237
v  -0.4148 0.8249 0.4131
v  0.0025 0.8200 0.5854
v  0.4202 0.8580 0.4131
v  0.0043 0.8228 0.0495
v  0.1014 0.1141 -0.1016
v  0.1433 0.1141 -0.0004
v  0.0003 0.1141 -0.1435
v  -0.1009 0.1141 -0.1016
v  -0.1428 0.1141 -0.0004
v  -0.1009 0.1141 0.1008
v  0.0003 0.1141 0.1427
v  0.1014 0.1141 0.1008
v  0.0635 0.5672 0.0015
v  0.0423 0.5666 -0.0496
v  -0.0088 0.5651 -0.0708
v  -0.0599 0.5637 -0.0496
v  -0.0810 0.5631 0.0015
v  -0.0599 0.5637 0.0527
v  -0.0088 0.5651 0.0738
v  0.0423 0.5666 0.0527
v  0.1019 0.5658 0.0017
v  0.0695 0.5649 -0.0765
v  -0.0087 0.5723 -0.1090
v  -0.0869 0.5605 -0.0765
v  -0.1193 0.5653 0.0017
v  -0.0869 0.5452 0.0800
v  -0.0087 0.5564 0.1124
v  0.0695 0.5649 0.0800
v  0.5126 0.8732 0.0011
v  0.3270 0.8405 -0.3249
v  0.0024 0.9177 -0.5149
v  -0.3600 0.9182 -0.3368
v  -0.5084 0.9207 0.0256
v  -0.3580 0.8854 0.3612
v  0.0019 0.8812 0.5090
v  0.3617 0.9156 0.3608
# 65 vertices

vn 0.6848 -0.2282 -0.6921
vn 0.7007 0.1516 -0.6972
vn 0.9839 0.1786 0.0106
vn 0.9717 -0.2360 -0.0000
vn -0.0072 -0.2092 -0.9778
vn -0.0056 0.1702 -0.9854
vn -0.6978 -0.1902 -0.6906
vn -0.6847 0.1975 -0.7016
vn -0.9832 -0.1823 0.0000
vn -0.9848 0.1737 0.0000
vn -0.6978 -0.1902 0.6906
vn -0.7017 0.1606 0.6941
vn -0.0072 -0.2092 0.9778
vn 0.0111 0.1377 0.9904
vn 0.6848 -0.2282 0.6921
vn 0.7065 0.1621 0.6889
vn 0.0000 -1.0000 -0.0000
vn 0.9152 0.4020 0.0289
vn 0.6786 0.3350 -0.6537
vn 0.7058 0.0783 -0.7041
vn 0.9967 0.0814 0.0003
vn -0.0252 0.3127 -0.9495
vn -0.0007 0.0644 -0.9979
vn -0.6335 0.3820 -0.6728
vn -0.7075 0.0454 -0.7052
vn -0.9497 0.3130 -0.0133
vn -0.9994 0.0351 0.0009
vn -0.6908 0.3305 0.6431
vn -0.7061 0.0391 0.7070
vn 0.0153 0.2710 0.9624
vn -0.0013 0.0558 0.9984
vn 0.7043 0.3147 0.6363
vn 0.7047 0.0738 0.7056
vn 0.2314 -0.9727 0.0196
vn 0.0834 -0.9762 -0.2001
vn 0.0967 -0.9776 -0.1870
vn 0.2493 -0.9645 0.0867
vn -0.1196 -0.9538 -0.2756
vn -0.0974 -0.9454 -0.3112
vn -0.2807 -0.9271 -0.2482
vn -0.2324 -0.9494 -0.2113
vn -0.2890 -0.9387 -0.1881
vn -0.3219 -0.9456 -0.0466
vn -0.1063 -0.9689 0.2234
vn -0.2203 -0.9633 0.1530
vn 0.0219 -0.9510 0.3085
vn 0.0411 -0.9697 0.2410
vn 0.1106 -0.9416 0.3179
vn 0.2078 -0.9499 0.2335
vn 0.3702 0.9222 -0.1116
vn 0.3399 0.9057 -0.2534
vn 0.0324 0.9994 -0.0112
vn 0.1091 0.9459 -0.3056
vn -0.2223 0.9530 -0.2060
vn -0.2978 0.9533 0.0506
vn -0.2055 0.9336 0.2937
vn -0.0353 0.9321 0.3605
vn 0.2135 0.9539 0.2111
vn -0.0595 -0.9982 0.0011
vn -0.0348 -0.9994 -0.0001
vn -0.0348 -0.9994 0.0001
vn -0.0371 -0.9991 -0.0186
vn 0.0503 -0.9870 -0.1529
vn 0.0855 -0.9842 -0.1551
vn 0.0469 -0.9989 -0.0026
vn 0.0724 -0.9964 0.0446
vn -0.0390 -0.9986 0.0348
vn 0.0133 -0.9989 -0.0455
vn 0.2155 -0.9336 -0.2861
vn 0.2704 -0.8998 -0.3424
vn 0.1014 -0.9634 -0.2481
vn 0.0647 -0.9774 -0.2014
vn -0.0137 -0.9970 -0.0767
vn -0.0163 -0.9989 -0.0442
vn 0.7029 0.2046 -0.6812
vn 0.9846 0.1750 0.0030
vn 0.9845 0.1752 -0.0019
vn 0.6962 0.2022 -0.6888
vn -0.1130 0.2720 -0.9556
vn -0.0572 0.2964 -0.9533
vn -0.6748 0.3131 -0.6683
vn -0.6785 0.3700 -0.6346
vn -0.9363 0.3497 0.0339
vn -0.9466 0.3071 -0.0983
vn -0.6754 0.2648 0.6883
vn -0.6745 0.2470 0.6958
vn 0.0074 0.2053 0.9787
vn -0.0638 0.2215 0.9731
vn 0.6925 0.1776 0.6992
vn 0.6669 0.1942 0.7194
vn 0.6132 0.7788 -0.1319
vn 0.5180 0.7289 -0.4475
vn 0.1193 0.8228 -0.5557
vn -0.4208 0.8112 -0.4060
vn -0.5765 0.8158 0.0457
vn -0.4011 0.7827 0.4760
vn -0.0327 0.7796 0.6254
vn 0.4292 0.8070 0.4057
# 98 vertex normals

vt 0.9768 0.5650 0.2950
vt 0.9738 0.6646 0.5000
vt 0.9349 0.6646 0.5000
vt 0.9349 0.5650 0.2870
vt 0.7051 0.5650 0.3132
vt 0.7011 0.6646 0.5000
vt 0.6621 0.6646 0.5000
vt 0.6651 0.5650 0.2950
vt 0.7427 0.5650 0.3305
vt 0.7401 0.6646 0.5000
vt 0.7790 0.5650 0.3374
vt 0.7790 0.6646 0.5000
vt 0.8153 0.5650 0.3305
vt 0.8180 0.6646 0.5000
vt 0.8529 0.5650 0.3132
vt 0.8569 0.6646 0.5000
vt 0.8929 0.5650 0.2950
vt 0.8959 0.6646 0.5000
vt 0.2046 0.3814 0.0000
vt 0.0839 0.3314 0.0000
vt 0.0339 0.2107 0.0000
vt 0.3752 0.2107 0.0000
vt 0.0839 0.0901 0.0000
vt 0.2046 0.0401 0.0000
vt 0.3252 0.0901 0.0000
vt 0.3252 0.3314 0.0000
vt 0.9349 0.6940 0.3946
vt 0.9742 0.6928 0.3946
vt 0.9607 0.8996 0.2263
vt 0.9211 0.8998 0.2211
vt 0.6621 0.7008 0.3946
vt 0.7011 0.7008 0.3946
vt 0.7192 0.8991 0.2480
vt 0.6822 0.8996 0.2263
vt 0.7401 0.6945 0.3946
vt 0.7528 0.8986 0.2715
vt 0.7790 0.7008 0.3946
vt 0.7842 0.8984 0.2842
vt 0.8180 0.7008 0.3946
vt 0.8152 0.8986 0.2802
vt 0.8569 0.7073 0.3946
vt 0.8474 0.8991 0.2613
vt 0.8959 0.7008 0.3946
vt 0.8825 0.8996 0.2366
vt 0.7394 0.2467 0.0000
vt 0.7158 0.2290 0.0000
vt 0.7680 0.0149 0.0000
vt 0.9510 0.1177 0.0000
vt 0.6865 0.2333 0.0000
vt 0.5582 0.0166 0.0000
vt 0.6687 0.2568 0.0000
vt 0.4336 0.2047 0.0000
vt 0.6729 0.2862 0.0000
vt 0.4648 0.4223 0.0000
vt 0.6966 0.3040 0.0000
vt 0.6338 0.5419 0.0000
vt 0.7259 0.2998 0.0000
vt 0.8511 0.5104 0.0000
vt 0.7436 0.2760 0.0000
vt 0.9831 0.3351 0.0000
vt 0.3528 0.4795 0.0000
vt 0.4791 0.6097 0.0000
vt 0.2608 0.7120 0.0000
vt 0.5231 0.7879 0.0000
vt 0.3907 0.9320 0.0000
vt 0.2018 0.9515 0.0000
vt 0.0663 0.8351 0.0000
vt 0.0468 0.6475 0.0000
vt 0.1649 0.5012 0.0000
vt 0.9503 0.9199 0.3597
vt 0.9149 0.9202 0.3553
vt 0.7236 0.9223 0.3807
vt 0.6896 0.9199 0.3597
vt 0.7556 0.9184 0.4045
vt 0.7861 0.9200 0.4179
vt 0.8163 0.9133 0.4143
vt 0.8473 0.9171 0.3953
vt 0.8801 0.9199 0.3707
vt 0.9411 0.9839 0.2215
vt 0.9095 0.9839 0.2346
vt 0.7227 0.9864 0.2129
vt 0.6895 0.9839 0.2215
vt 0.7566 0.9814 0.2146
vt 0.7895 0.9844 0.2253
vt 0.8205 0.9866 0.2382
vt 0.8502 0.9879 0.2459
vt 0.8795 0.9839 0.2445
vt 0.3660 0.4426 0.0000
vt 0.5099 0.5934 0.0000
vt 0.5608 0.7977 0.0000
vt 0.4097 0.9641 0.0000
vt 0.1919 0.9875 0.0000
vt 0.0344 0.8532 0.0000
vt 0.0114 0.6357 0.0000
vt 0.1486 0.4658 0.0000
# 95 texture coords

g amanita_A_low
usemtl amanita
s 1
f -64/-95/-98 -32/-94/-97 -31/-93/-96 -65/-92/-95 
f -63/-91/-94 -30/-90/-93 -32/-89/-97 -64/-88/-98 
f -62/-87/-92 -29/-86/-91 -30/-90/-93 -63/-91/-94 
f -61/-85/-90 -28/-84/-89 -29/-86/-91 -62/-87/-92 
f -60/-83/-88 -27/-82/-87 -28/-84/-89 -61/-85/-90 
f -59/-81/-86 -26/-80/-85 -27/-82/-87 -60/-83/-88 
f -58/-79/-84 -25/-78/-83 -26/-80/-85 -59/-81/-86 
f -65/-92/-95 -31/-93/-96 -25/-78/-83 -58/-79/-84 
s 2
f -59/-77/-82 -60/-76/-82 -61/-75/-82 -65/-74/-82 
f -61/-75/-82 -62/-73/-82 -63/-72/-82 -65/-74/-82 
f -63/-72/-82 -64/-71/-82 -65/-74/-82 
f -58/-70/-82 -59/-77/-82 -65/-74/-82 
s 1
f -57/-69/-81 -56/-68/-80 -23/-67/-79 -24/-66/-78 
f -56/-65/-80 -55/-64/-77 -22/-63/-76 -23/-62/-79 
f -55/-64/-77 -54/-61/-75 -21/-60/-74 -22/-63/-76 
f -54/-61/-75 -53/-59/-73 -20/-58/-72 -21/-60/-74 
f -53/-59/-73 -52/-57/-71 -19/-56/-70 -20/-58/-72 
f -52/-57/-71 -51/-55/-69 -18/-54/-68 -19/-56/-70 
f -51/-55/-69 -50/-53/-67 -17/-52/-66 -18/-54/-68 
f -50/-53/-67 -57/-69/-81 -24/-66/-78 -17/-52/-66 
s 2
f -49/-51/-65 -48/-50/-64 -40/-49/-63 -41/-48/-62 
f -48/-50/-64 -47/-47/-61 -39/-46/-60 -40/-49/-63 
f -47/-47/-61 -46/-45/-59 -38/-44/-58 -39/-46/-60 
f -46/-45/-59 -45/-43/-57 -37/-42/-56 -38/-44/-58 
f -45/-43/-57 -44/-41/-55 -36/-40/-54 -37/-42/-56 
f -44/-41/-55 -43/-39/-53 -35/-38/-52 -36/-40/-54 
f -43/-39/-53 -42/-37/-51 -34/-36/-50 -35/-38/-52 
f -42/-37/-51 -49/-51/-65 -41/-48/-62 -34/-36/-50 
s 1
f -8/-35/-49 -7/-34/-48 -33/-33/-47 
f -7/-34/-48 -6/-32/-46 -33/-33/-47 
f -6/-32/-46 -5/-31/-45 -33/-33/-47 
f -5/-31/-45 -4/-30/-44 -33/-33/-47 
f -4/-30/-44 -3/-29/-43 -33/-33/-47 
f -3/-29/-43 -2/-28/-42 -33/-33/-47 
f -2/-28/-42 -1/-27/-41 -33/-33/-47 
f -1/-27/-41 -8/-35/-49 -33/-33/-47 
f -56/-68/-80 -57/-69/-81 -31/-93/-96 -32/-94/-97 
f -55/-64/-77 -56/-65/-80 -32/-89/-97 -30/-90/-93 
f -54/-61/-75 -55/-64/-77 -30/-90/-93 -29/-86/-91 
f -53/-59/-73 -54/-61/-75 -29/-86/-91 -28/-84/-89 
f -52/-57/-71 -53/-59/-73 -28/-84/-89 -27/-82/-87 
f -51/-55/-69 -52/-57/-71 -27/-82/-87 -26/-80/-85 
f -50/-53/-67 -51/-55/-69 -26/-80/-85 -25/-78/-83 
f -57/-69/-81 -50/-53/-67 -25/-78/-83 -31/-93/-96 
s 2
f -15/-26/-40 -16/-25/-39 -24/-66/-38 -23/-67/-37 
f -14/-24/-36 -15/-23/-40 -23/-62/-37 -22/-63/-35 
f -13/-22/-34 -14/-24/-36 -22/-63/-35 -21/-60/-33 
f -20/-58/-32 -12/-21/-31 -13/-22/-34 -21/-60/-33 
f -19/-56/-30 -11/-20/-29 -12/-21/-31 -20/-58/-32 
f -10/-19/-28 -11/-20/-29 -19/-56/-30 -18/-54/-27 
f -9/-18/-26 -10/-19/-28 -18/-54/-27 -17/-52/-25 
f -16/-25/-39 -9/-18/-26 -17/-52/-25 -24/-66/-38 
s 1
f -48/-17/-24 -49/-16/-23 -16/-25/-22 -15/-26/-21 
f -47/-15/-20 -48/-14/-24 -15/-23/-21 -14/-24/-19 
f -46/-13/-18 -47/-15/-20 -14/-24/-19 -13/-22/-17 
f -12/-21/-16 -45/-12/-15 -46/-13/-18 -13/-22/-17 
f -11/-20/-14 -44/-11/-13 -45/-12/-15 -12/-21/-16 
f -43/-10/-12 -44/-11/-13 -11/-20/-14 -10/-19/-11 
f -42/-9/-10 -43/-10/-12 -10/-19/-11 -9/-18/-9 
f -49/-16/-23 -42/-9/-10 -9/-18/-9 -16/-25/-22 
f -8/-35/-49 -41/-8/-8 -40/-7/-7 -7/-34/-48 
f -7/-34/-48 -40/-7/-7 -39/-6/-6 -6/-32/-46 
f -6/-32/-46 -39/-6/-6 -38/-5/-5 -5/-31/-45 
f -5/-31/-45 -38/-5/-5 -37/-4/-4 -4/-30/-44 
f -4/-30/-44 -37/-4/-4 -36/-3/-3 -3/-29/-43 
f -3/-29/-43 -36/-3/-3 -35/-2/-2 -2/-28/-42 
f -2/-28/-42 -35/-2/-2 -34/-1/-1 -1/-27/-41 
f -1/-27/-41 -34/-1/-1 -41/-8/-8 -8/-35/-49 
# 58 polygons - 10 triangles

