# 3ds Max Wavefront OBJ Exporter v0.94b - (c)2007 guruware
# File Created: 02.08.2010 11:30:22

mtllib amanita_b.mtl

#
# object amanita_B
#

v  0.4223 0.6457 0.0018
v  0.2765 0.6131 -0.2779
v  -0.0023 0.6538 -0.4223
v  -0.2991 0.6637 -0.2849
v  -0.4240 0.6472 0.0165
v  -0.2993 0.6324 0.3013
v  0.0018 0.6286 0.4230
v  0.3029 0.6546 0.2986
v  0.0021 0.8518 0.0330
v  0.3347 0.7183 0.0082
v  0.2203 0.7061 -0.2145
v  -0.0016 0.7440 -0.3288
v  -0.2368 0.7531 -0.2188
v  -0.3349 0.7509 0.0201
v  -0.2359 0.7277 0.2447
v  0.0016 0.7363 0.3512
v  0.2390 0.7512 0.2423
v  -0.0061 -0.1012 0.0005
v  0.0424 0.3695 -0.0269
v  0.0122 0.3691 -0.0538
v  -0.0305 0.3685 -0.0571
v  -0.0606 0.3681 -0.0269
v  -0.0606 0.3681 0.0158
v  -0.0305 0.3685 0.0460
v  0.0217 0.3691 0.0543
v  0.0500 0.3695 0.0158
v  0.2188 0.7553 -0.0704
v  0.0864 0.7696 -0.2043
v  -0.0919 0.7944 -0.2074
v  -0.2244 0.7954 -0.0671
v  -0.2239 0.7849 0.1140
v  -0.0915 0.7722 0.2395
v  0.0953 0.7819 0.2394
v  0.2278 0.7793 0.1076
v  0.0797 0.1773 -0.0335
v  0.0308 0.1859 -0.0807
v  -0.0370 0.1782 -0.0810
v  -0.0846 0.1666 -0.0335
v  -0.0840 0.1579 0.0342
v  -0.0356 0.1560 0.0823
v  0.0325 0.1605 0.0823
v  0.0805 0.1655 0.0336
v  0.0472 0.5520 -0.0177
v  0.0176 0.5545 -0.0474
v  -0.0243 0.5524 -0.0474
v  -0.0540 0.5502 -0.0177
v  -0.0540 0.5503 0.0242
v  -0.0243 0.5507 0.0538
v  0.0176 0.5526 0.0538
v  0.0472 0.5520 0.0242
v  0.3512 0.6570 -0.1365
v  0.1375 0.6844 -0.3521
v  -0.1499 0.7097 -0.3577
v  -0.3643 0.7109 -0.1318
v  -0.3639 0.6943 0.1611
v  -0.1497 0.6740 0.3645
v  0.1529 0.7092 0.3644
v  0.3668 0.6950 0.1508
v  0.0547 -0.1012 -0.0246
v  0.0764 0.2136 -0.0313
v  0.0191 -0.1012 -0.0602
v  0.0315 0.2205 -0.0762
v  -0.0312 -0.1012 -0.0602
v  -0.0321 0.2142 -0.0762
v  -0.0668 -0.1012 -0.0246
v  -0.0771 0.2142 -0.0313
v  -0.0668 -0.1012 0.0257
v  -0.0771 0.2205 0.0323
v  -0.0312 -0.1012 0.0612
v  -0.0321 0.2270 0.0772
v  0.0191 -0.1012 0.0612
v  0.0315 0.2321 0.0799
v  0.0547 -0.1012 0.0257
v  0.0764 0.2136 0.0323
v  0.0536 0.2549 -0.0218
v  0.0220 0.2549 -0.0534
v  -0.0227 0.2473 -0.0534
v  -0.0543 0.2549 -0.0218
v  -0.0543 0.2638 0.0228
v  -0.0227 0.2549 0.0544
v  0.0220 0.2549 0.0544
v  0.0536 0.2417 0.0228
v  0.0435 0.6159 -0.0146
v  0.0187 0.6196 -0.0394
v  -0.0164 0.6158 -0.0394
v  -0.0413 0.6241 -0.0146
v  -0.0413 0.6206 0.0206
v  -0.0164 0.6256 0.0454
v  0.0187 0.6218 0.0454
v  0.0435 0.6159 0.0206
v  0.3058 0.6973 -0.1143
v  0.1200 0.7248 -0.3022
v  -0.1301 0.7495 -0.3067
v  -0.3163 0.7508 -0.1099
v  -0.3157 0.7361 0.1445
v  -0.1297 0.7388 0.3208
v  0.1269 0.7473 0.3206
v  0.3187 0.7308 0.1354
v  0.2122 0.7830 0.0195
v  0.1407 0.7727 -0.1219
v  -0.0001 0.8010 -0.1931
v  -0.1484 0.8076 -0.1242
v  -0.2103 0.8058 0.0268
v  -0.1478 0.7915 0.1687
v  0.0021 0.7898 0.2288
v  0.1519 0.7998 0.1670
v  0.0416 0.4840 -0.0183
v  0.0128 0.4832 -0.0471
v  -0.0279 0.4821 -0.0471
v  -0.0566 0.4812 -0.0183
v  -0.0566 0.4812 0.0224
v  -0.0279 0.4821 0.0512
v  0.0128 0.4832 0.0512
v  0.0416 0.4840 0.0224
v  0.0924 0.4843 -0.0392
v  0.0339 0.4877 -0.0978
v  -0.0489 0.4854 -0.0978
v  -0.1074 0.4817 -0.0392
v  -0.1074 0.4736 0.0436
v  -0.0489 0.4551 0.1021
v  0.0339 0.4677 0.1021
v  0.0924 0.4843 0.0436
v  0.3942 0.6798 0.0034
v  0.2587 0.6612 -0.2584
v  -0.0021 0.7000 -0.3933
v  -0.2794 0.7099 -0.2642
v  -0.3955 0.7075 0.0173
v  -0.2789 0.6802 0.2825
v  0.0015 0.6767 0.3956
v  0.2820 0.6993 0.2798
v  0.3758 0.6170 -0.1477
v  0.1469 0.6342 -0.3781
v  -0.1604 0.6639 -0.3845
v  -0.3903 0.6649 -0.1433
v  -0.3904 0.6474 0.1708
v  -0.1607 0.6258 0.3895
v  0.1644 0.6526 0.3895
v  0.3935 0.6571 0.1600
# 138 vertices

vn 0.9178 0.0054 -0.3969
vn 0.9307 -0.0163 0.3655
vn 0.9194 -0.0972 0.3810
vn 0.9187 -0.0917 -0.3842
vn 0.3798 -0.0826 -0.9214
vn 0.3718 0.0244 -0.9280
vn -0.3827 -0.0777 -0.9206
vn -0.3943 0.0514 -0.9175
vn -0.9218 -0.0738 -0.3805
vn -0.9260 0.0457 -0.3748
vn -0.9218 -0.0736 0.3806
vn -0.9227 0.0210 0.3850
vn -0.3846 -0.0811 0.9195
vn -0.3823 0.0004 0.9240
vn 0.3783 -0.0919 0.9211
vn 0.3840 -0.0233 0.9230
vn -0.0000 -1.0000 -0.0000
vn 0.0000 -1.0000 0.0000
vn 0.0000 -1.0000 -0.0000
vn -0.0000 -1.0000 0.0000
vn 0.8844 0.3254 -0.3345
vn 0.8183 0.4700 0.3309
vn 0.8851 0.3281 0.3301
vn 0.8849 0.2993 -0.3569
vn 0.3625 0.3577 -0.8606
vn 0.3631 0.3130 -0.8776
vn -0.3586 0.3553 -0.8632
vn -0.3445 0.3439 -0.8735
vn -0.8715 0.3164 -0.3746
vn -0.8755 0.2688 -0.4015
vn -0.8814 0.3098 0.3565
vn -0.8908 0.2312 0.3912
vn -0.3820 0.3735 0.8453
vn -0.3565 0.3808 0.8532
vn 0.3627 0.4356 0.8238
vn 0.4012 0.4285 0.8096
vn 0.8714 0.0350 -0.4894
vn 0.9732 0.0246 0.2286
vn 0.3800 0.0425 -0.9240
vn 0.3869 0.0608 -0.9201
vn 0.9210 0.0643 -0.3841
vn 0.9221 0.0728 0.3801
vn -0.3561 0.0246 -0.9341
vn -0.3719 0.0774 -0.9250
vn -0.9207 -0.0026 -0.3904
vn -0.9268 0.0607 -0.3707
vn -0.9305 -0.0093 0.3662
vn -0.9164 0.0090 0.4002
vn -0.4592 0.0129 0.8882
vn -0.3673 -0.0342 0.9295
vn 0.3895 0.0295 0.9205
vn 0.3532 0.0236 0.9353
vn 0.0488 -0.9946 0.0918
vn 0.0841 -0.9887 0.1240
vn 0.0112 -0.9945 0.1038
vn -0.0291 -0.9993 -0.0219
vn -0.0146 -0.9967 -0.0798
vn -0.0457 -0.9985 -0.0314
vn -0.0893 -0.9917 -0.0927
vn -0.1028 -0.9913 -0.0817
vn -0.0687 -0.9972 -0.0288
vn -0.1401 -0.9898 -0.0240
vn -0.0912 -0.9930 -0.0747
vn -0.0816 -0.9912 -0.1040
vn -0.0698 -0.9961 -0.0542
vn -0.0827 -0.9925 -0.0899
vn -0.0124 -0.9999 0.0030
vn -0.0127 -0.9987 0.0502
vn -0.0627 -0.9977 -0.0265
vn -0.0830 -0.9964 -0.0152
vn 0.0772 -0.9969 0.0158
vn -0.0112 -0.9999 -0.0043
vn -0.0382 -0.9955 0.0865
vn 0.0739 -0.9955 0.0600
vn 0.1038 -0.9936 0.0450
vn 0.3874 0.8829 -0.2652
vn 0.3712 0.9182 -0.1381
vn 0.4998 0.8541 -0.1436
vn 0.4932 0.8174 -0.2979
vn 0.3464 0.9064 -0.2419
vn 0.4495 0.8283 -0.3343
vn 0.0454 0.9988 0.0190
vn 0.3284 0.9045 -0.2721
vn 0.3588 0.8340 -0.4192
vn 0.1318 0.9487 -0.2874
vn 0.0928 0.8673 -0.4891
vn -0.1118 0.9437 -0.3114
vn -0.1804 0.8649 -0.4684
vn -0.2036 0.9586 -0.1991
vn -0.3568 0.8710 -0.3378
vn -0.3245 0.9390 -0.1135
vn -0.4793 0.8568 -0.1904
vn -0.3006 0.9520 0.0570
vn -0.5057 0.8610 0.0543
vn -0.3260 0.9135 0.2433
vn -0.4824 0.8257 0.2923
vn -0.2170 0.9226 0.3190
vn -0.3743 0.8139 0.4444
vn -0.1727 0.9293 0.3265
vn -0.2848 0.7818 0.5546
vn -0.0414 0.9394 0.3403
vn -0.0470 0.7722 0.6336
vn 0.0755 0.9359 0.3441
vn 0.1690 0.8583 0.4846
vn 0.2277 0.9513 0.2080
vn 0.4027 0.8390 0.3659
vn 0.3979 0.9164 0.0433
vn 0.5138 0.8522 0.0991
vn 0.0231 -0.9978 -0.0621
vn 0.0248 -0.9966 -0.0788
vn 0.0117 -0.9997 -0.0201
vn 0.0089 -0.9999 0.0079
vn -0.0031 -0.9949 -0.1012
vn 0.0460 -0.9942 -0.0967
vn 0.0005 -0.9978 -0.0662
vn 0.0120 -0.9978 -0.0651
vn -0.0050 -0.9996 -0.0262
vn 0.0365 -0.9979 -0.0540
vn 0.0910 -0.9930 -0.0747
vn 0.1200 -0.9728 -0.1983
vn 0.0776 -0.9202 -0.3836
vn 0.1150 -0.9076 -0.4039
vn -0.0461 -0.9514 -0.3045
vn 0.0603 -0.9592 -0.2763
vn 0.2980 0.6219 -0.7242
vn 0.3545 0.3975 -0.8464
vn 0.8613 0.3741 -0.3439
vn 0.7480 0.5935 -0.2972
vn 0.3952 0.1067 -0.9124
vn 0.9200 0.0716 -0.3853
vn 0.9189 0.0749 0.3873
vn 0.8595 0.3679 0.3548
vn 0.7332 0.5690 0.3723
vn -0.3282 0.6401 -0.6947
vn -0.3665 0.4438 -0.8177
vn -0.3742 0.1514 -0.9149
vn -0.7292 0.6421 -0.2367
vn -0.8338 0.4482 -0.3223
vn -0.9094 0.1761 -0.3769
vn -0.6906 0.5959 0.4099
vn -0.8385 0.4025 0.3674
vn -0.9048 0.1786 0.3867
vn -0.3202 0.5070 0.8003
vn -0.3759 0.3491 0.8584
vn -0.3673 0.1456 0.9186
vn 0.2114 0.5057 0.8364
vn 0.3371 0.3449 0.8760
vn 0.3721 0.1085 0.9218
vn 0.6435 0.6632 -0.3821
vn 0.6698 0.7296 -0.1381
vn 0.7071 0.5619 -0.4293
vn 0.7632 0.6295 -0.1455
vn 0.6450 0.4868 -0.5890
vn 0.5857 0.6323 -0.5071
vn 0.4252 0.6355 -0.6444
vn 0.4622 0.4767 -0.7477
vn 0.0784 0.5269 -0.8463
vn 0.0729 0.6759 -0.7334
vn -0.2856 0.6758 -0.6795
vn -0.3315 0.5322 -0.7790
vn -0.6138 0.5261 -0.5886
vn -0.5361 0.6744 -0.5077
vn -0.6994 0.6603 -0.2735
vn -0.7987 0.5243 -0.2953
vn -0.8990 0.4375 0.0190
vn -0.7763 0.6296 0.0304
vn -0.6788 0.6417 0.3571
vn -0.7762 0.5001 0.3840
vn -0.5720 0.4987 0.6512
vn -0.5053 0.6282 0.5916
vn -0.3217 0.5547 0.7673
vn -0.3217 0.4912 0.8095
vn -0.0467 0.4932 0.8686
vn -0.0516 0.5354 0.8430
vn 0.2755 0.6243 0.7310
vn 0.2935 0.4440 0.8466
vn 0.6093 0.5212 0.5975
vn 0.5550 0.6396 0.5318
vn 0.6764 0.7031 0.2192
vn 0.7600 0.5910 0.2705
vn 0.0907 -0.9937 0.0664
# 181 vertex normals

vt 0.9544 0.6790 0.4473
vt 0.9154 0.6810 0.4473
vt 0.9139 0.5650 0.2910
vt 0.9558 0.5650 0.2910
vt 0.9961 0.5645 0.2976
vt 1.0081 0.6914 0.5643
vt 0.9594 0.6884 0.5509
vt 0.6851 0.5650 0.3041
vt 0.7239 0.5650 0.3219
vt 0.7206 0.6811 0.4473
vt 0.6816 0.6827 0.4473
vt 0.7609 0.5650 0.3340
vt 0.7595 0.6811 0.4473
vt 0.7972 0.5650 0.3340
vt 0.7985 0.6827 0.4473
vt 0.8341 0.5650 0.3219
vt 0.8375 0.6843 0.4473
vt 0.8729 0.5650 0.3041
vt 0.8764 0.6843 0.4473
vt 0.2649 0.3564 0.0000
vt 0.2046 0.2107 0.0000
vt 0.3502 0.2711 0.0000
vt 0.1442 0.3564 0.0000
vt 0.0589 0.2711 0.0000
vt 0.0589 0.1504 0.0000
vt 0.1442 0.0651 0.0000
vt 0.2649 0.0651 0.0000
vt 0.3502 0.1504 0.0000
vt 0.9387 0.7337 0.2773
vt 0.9042 0.7337 0.2773
vt 0.9154 0.6974 0.3946
vt 0.9545 0.6934 0.3946
vt 0.9899 0.6966 0.3821
vt 0.9662 0.7336 0.2758
vt 0.6816 0.7008 0.3946
vt 0.7206 0.6977 0.3946
vt 0.7318 0.7337 0.2773
vt 0.6973 0.7337 0.2773
vt 0.7595 0.6977 0.3946
vt 0.7663 0.7337 0.2773
vt 0.7985 0.7008 0.3946
vt 0.8008 0.7337 0.2773
vt 0.8375 0.7041 0.3946
vt 0.8352 0.7337 0.2773
vt 0.8764 0.7041 0.3946
vt 0.8697 0.7337 0.2773
vt 0.9398 0.8167 0.2505
vt 0.9030 0.8167 0.2531
vt 0.9717 0.7340 0.2772
vt 0.9734 0.8168 0.2517
vt 0.9753 0.8168 0.2529
vt 0.9769 0.8996 0.2274
vt 0.9409 0.8997 0.2237
vt 0.9018 0.8997 0.2289
vt 0.7339 0.8163 0.2685
vt 0.6990 0.8165 0.2572
vt 0.7360 0.8989 0.2598
vt 0.7007 0.8994 0.2371
vt 0.7674 0.8161 0.2776
vt 0.7685 0.8985 0.2779
vt 0.8002 0.8161 0.2797
vt 0.7997 0.8985 0.2822
vt 0.8333 0.8163 0.2740
vt 0.8313 0.8989 0.2707
vt 0.8673 0.8165 0.2631
vt 0.8650 0.8994 0.2489
vt 0.8595 0.0663 0.0000
vt 0.9510 0.1177 0.0000
vt 0.7415 0.2613 0.0000
vt 0.7276 0.2378 0.0000
vt 0.7011 0.2311 0.0000
vt 0.7680 0.0149 0.0000
vt 0.5582 0.0166 0.0000
vt 0.6631 0.0158 0.0000
vt 0.6776 0.2450 0.0000
vt 0.6708 0.2715 0.0000
vt 0.4336 0.2047 0.0000
vt 0.4959 0.1106 0.0000
vt 0.4648 0.4223 0.0000
vt 0.4492 0.3135 0.0000
vt 0.6848 0.2951 0.0000
vt 0.7113 0.3019 0.0000
vt 0.6338 0.5419 0.0000
vt 0.5493 0.4821 0.0000
vt 0.8511 0.5104 0.0000
vt 0.7424 0.5261 0.0000
vt 0.7348 0.2879 0.0000
vt 0.9831 0.3351 0.0000
vt 0.9171 0.4227 0.0000
vt 0.3642 0.6004 0.0000
vt 0.3094 0.5890 0.0000
vt 0.3377 0.5168 0.0000
vt 0.4058 0.5552 0.0000
vt 0.3813 0.6563 0.0000
vt 0.4506 0.6239 0.0000
vt 0.2644 0.7132 0.0000
vt 0.4210 0.7032 0.0000
vt 0.4853 0.6995 0.0000
vt 0.3991 0.7534 0.0000
vt 0.4799 0.7772 0.0000
vt 0.3915 0.8106 0.0000
vt 0.4441 0.8502 0.0000
vt 0.3319 0.8299 0.0000
vt 0.3729 0.8985 0.0000
vt 0.2844 0.8651 0.0000
vt 0.2939 0.9268 0.0000
vt 0.2308 0.8404 0.0000
vt 0.2129 0.9151 0.0000
vt 0.1763 0.8328 0.0000
vt 0.1420 0.8815 0.0000
vt 0.1570 0.7778 0.0000
vt 0.0962 0.8162 0.0000
vt 0.1246 0.7315 0.0000
vt 0.0694 0.7392 0.0000
vt 0.1475 0.6778 0.0000
vt 0.0808 0.6576 0.0000
vt 0.1575 0.6202 0.0000
vt 0.1156 0.5829 0.0000
vt 0.2107 0.5994 0.0000
vt 0.1810 0.5334 0.0000
vt 0.2595 0.5642 0.0000
vt 0.2589 0.5043 0.0000
vt 0.6455 0.6997 0.3977
vt 0.6442 0.6832 0.4457
vt 0.9737 0.8947 0.1958
vt 0.9721 0.9117 0.3089
vt 0.9326 0.9200 0.3575
vt 0.8975 0.9200 0.3630
vt 0.7396 0.9204 0.3926
vt 0.7066 0.9211 0.3702
vt 0.7709 0.9192 0.4112
vt 0.8012 0.9167 0.4161
vt 0.8318 0.9152 0.4048
vt 0.8637 0.9185 0.3830
vt 0.7064 0.9531 0.2937
vt 0.6797 0.9530 0.2806
vt 0.6736 0.9218 0.3433
vt 0.7061 0.9852 0.2172
vt 0.6758 0.9835 0.2177
vt 0.6741 0.9517 0.2858
vt 0.8945 0.9839 0.2395
vt 0.8960 0.9520 0.3013
vt 0.9290 0.9520 0.2928
vt 0.9253 0.9839 0.2280
vt 0.7397 0.9521 0.3032
vt 0.7397 0.9839 0.2137
vt 0.7720 0.9511 0.3156
vt 0.7731 0.9829 0.2199
vt 0.8031 0.9511 0.3239
vt 0.8050 0.9855 0.2318
vt 0.8336 0.9512 0.3234
vt 0.8353 0.9873 0.2421
vt 0.8643 0.9522 0.3141
vt 0.8649 0.9859 0.2452
vt 0.4270 0.5313 0.0000
vt 0.3510 0.4814 0.0000
vt 0.4380 0.5180 0.0000
vt 0.3660 0.4426 0.0000
vt 0.5099 0.5934 0.0000
vt 0.4836 0.6079 0.0000
vt 0.5182 0.6972 0.0000
vt 0.5354 0.6955 0.0000
vt 0.5608 0.7977 0.0000
vt 0.5183 0.7883 0.0000
vt 0.4711 0.8704 0.0000
vt 0.4853 0.8809 0.0000
vt 0.4097 0.9641 0.0000
vt 0.3925 0.9313 0.0000
vt 0.2985 0.9588 0.0000
vt 0.3008 0.9758 0.0000
vt 0.1919 0.9875 0.0000
vt 0.2039 0.9511 0.0000
vt 0.1236 0.9068 0.0000
vt 0.1131 0.9204 0.0000
vt 0.0344 0.8532 0.0000
vt 0.0660 0.8345 0.0000
vt 0.0397 0.7429 0.0000
vt 0.0229 0.7445 0.0000
vt 0.0114 0.6357 0.0000
vt 0.0477 0.6472 0.0000
vt 0.0929 0.5626 0.0000
vt 0.0800 0.5508 0.0000
vt 0.1486 0.4658 0.0000
vt 0.1661 0.5005 0.0000
vt 0.2581 0.4723 0.0000
vt 0.2573 0.4542 0.0000
vt 0.9670 0.2264 0.0000
# 187 texture coords

g amanita_B
usemtl amanita
s 1
f -104/-187/-181 -97/-186/-180 -66/-185/-179 -80/-184/-178 
f -80/-184/-178 -78/-183/-177 -103/-182/-176 -104/-181/-181 
f -78/-180/-177 -76/-179/-175 -102/-178/-174 -103/-177/-176 
f -76/-179/-175 -74/-176/-173 -101/-175/-172 -102/-178/-174 
f -74/-176/-173 -72/-174/-171 -100/-173/-170 -101/-175/-172 
f -72/-174/-171 -70/-172/-169 -99/-171/-168 -100/-173/-170 
f -70/-172/-169 -68/-170/-167 -98/-169/-166 -99/-171/-168 
f -68/-170/-167 -66/-185/-179 -97/-186/-180 -98/-169/-166 
s 2
f -68/-168/-165 -121/-167/-164 -66/-166/-165 
f -68/-168/-165 -70/-165/-163 -121/-167/-164 
f -72/-164/-163 -121/-167/-164 -70/-165/-163 
f -72/-164/-163 -74/-163/-164 -121/-167/-164 
f -76/-162/-164 -121/-167/-164 -74/-163/-164 
f -76/-162/-164 -78/-161/-162 -121/-167/-164 
f -80/-160/-162 -121/-167/-164 -78/-161/-162 
f -80/-160/-162 -66/-166/-165 -121/-167/-164 
s 1
f -64/-159/-161 -57/-158/-160 -65/-157/-159 -79/-156/-158 
f -79/-156/-158 -77/-155/-157 -63/-154/-156 -64/-159/-161 
f -77/-153/-157 -75/-152/-155 -62/-151/-154 -63/-150/-156 
f -75/-152/-155 -73/-149/-153 -61/-148/-152 -62/-151/-154 
f -73/-149/-153 -71/-147/-151 -60/-146/-150 -61/-148/-152 
f -71/-147/-151 -69/-145/-149 -59/-144/-148 -60/-146/-150 
f -69/-145/-149 -67/-143/-147 -58/-142/-146 -59/-144/-148 
f -67/-143/-147 -65/-157/-159 -57/-158/-160 -58/-142/-146 
f -120/-141/-145 -113/-140/-144 -57/-158/-160 -64/-159/-161 
f -64/-159/-161 -63/-139/-156 -119/-138/-143 -120/-141/-145 
f -120/-141/-145 -119/-137/-143 -31/-136/-142 -32/-135/-141 
f -32/-135/-141 -25/-134/-140 -113/-140/-144 -120/-141/-145 
f -63/-150/-156 -62/-151/-154 -118/-133/-139 -119/-132/-143 
f -119/-132/-143 -118/-133/-139 -30/-131/-138 -31/-130/-142 
f -62/-151/-154 -61/-148/-152 -117/-129/-137 -118/-133/-139 
f -118/-133/-139 -117/-129/-137 -29/-128/-136 -30/-131/-138 
f -61/-148/-152 -60/-146/-150 -116/-127/-135 -117/-129/-137 
f -117/-129/-137 -116/-127/-135 -28/-126/-134 -29/-128/-136 
f -60/-146/-150 -59/-144/-148 -115/-125/-133 -116/-127/-135 
f -116/-127/-135 -115/-125/-133 -27/-124/-132 -28/-126/-134 
f -59/-144/-148 -58/-142/-146 -114/-123/-131 -115/-125/-133 
f -115/-125/-133 -114/-123/-131 -26/-122/-130 -27/-124/-132 
f -58/-142/-146 -57/-158/-160 -113/-140/-144 -114/-123/-131 
f -114/-123/-131 -113/-140/-144 -25/-134/-140 -26/-122/-130 
s 2
f -8/-121/-129 -138/-120/-128 -49/-119/-127 -56/-118/-126 
f -56/-118/-126 -55/-117/-125 -137/-116/-124 -8/-121/-129 
f -55/-117/-125 -136/-115/-123 -7/-114/-122 
f -54/-113/-121 -53/-112/-120 -135/-111/-119 -6/-110/-118 
f -53/-112/-120 -134/-109/-117 -5/-108/-116 
f -52/-107/-115 -51/-106/-114 -133/-105/-113 -4/-104/-112 
f -51/-106/-114 -132/-103/-111 -3/-102/-110 
f -50/-101/-109 -49/-119/-127 -131/-100/-108 -2/-99/-107 
s 1
f -112/-98/-106 -40/-97/-105 -129/-96/-104 -48/-95/-103 
f -39/-94/-102 -112/-98/-106 -48/-95/-103 -128/-93/-101 
f -112/-98/-106 -39/-94/-102 -130/-92/-100 -40/-97/-105 
f -111/-91/-99 -39/-94/-102 -128/-93/-101 -47/-90/-98 
f -38/-89/-97 -111/-91/-99 -47/-90/-98 -127/-88/-96 
f -111/-91/-99 -38/-89/-97 -130/-92/-100 -39/-94/-102 
f -110/-87/-95 -38/-89/-97 -127/-88/-96 -46/-86/-94 
f -37/-85/-93 -110/-87/-95 -46/-86/-94 -126/-84/-92 
f -110/-87/-95 -37/-85/-93 -130/-92/-100 -38/-89/-97 
f -109/-83/-91 -37/-85/-93 -126/-84/-92 -45/-82/-90 
f -36/-81/-89 -109/-83/-91 -45/-82/-90 -125/-80/-88 
f -109/-83/-91 -36/-81/-89 -130/-92/-100 -37/-85/-93 
f -108/-79/-87 -36/-81/-89 -125/-80/-88 -44/-78/-86 
f -35/-77/-85 -108/-79/-87 -44/-78/-86 -124/-76/-84 
f -108/-79/-87 -35/-77/-85 -130/-92/-100 -36/-81/-89 
f -107/-75/-83 -35/-77/-85 -124/-76/-84 -43/-74/-82 
f -34/-73/-81 -107/-75/-83 -43/-74/-82 -123/-72/-80 
f -107/-75/-83 -34/-73/-81 -130/-92/-100 -35/-77/-85 
f -106/-71/-79 -34/-73/-81 -123/-72/-80 -42/-70/-78 
f -33/-69/-77 -106/-71/-79 -42/-70/-78 -122/-68/-76 
f -106/-71/-79 -33/-69/-77 -130/-92/-100 -34/-73/-81 
f -105/-67/-75 -33/-69/-77 -122/-68/-76 -41/-66/-74 
f -40/-97/-105 -105/-67/-75 -41/-66/-74 -129/-96/-104 
f -105/-67/-75 -40/-97/-105 -130/-92/-100 -33/-69/-77 
f -103/-177/-176 -77/-153/-157 -79/-65/-158 -104/-64/-181 
f -65/-157/-159 -97/-186/-180 -104/-187/-181 -79/-156/-158 
f -102/-178/-174 -75/-152/-155 -77/-153/-157 -103/-177/-176 
f -101/-175/-172 -73/-149/-153 -75/-152/-155 -102/-178/-174 
f -100/-173/-170 -71/-147/-151 -73/-149/-153 -101/-175/-172 
f -99/-171/-168 -69/-145/-149 -71/-147/-151 -100/-173/-170 
f -98/-169/-166 -67/-143/-147 -69/-145/-149 -99/-171/-168 
f -97/-186/-180 -65/-157/-159 -67/-143/-147 -98/-169/-166 
s 2
f -31/-63/-73 -23/-62/-72 -24/-61/-71 -32/-135/-70 
f -25/-134/-69 -32/-135/-70 -24/-61/-71 -17/-60/-68 
f -30/-131/-67 -22/-59/-66 -23/-58/-72 -31/-130/-73 
f -29/-128/-65 -21/-57/-64 -22/-59/-66 -30/-131/-67 
f -28/-126/-63 -20/-56/-62 -21/-57/-64 -29/-128/-65 
f -27/-124/-61 -19/-55/-60 -20/-56/-62 -28/-126/-63 
f -26/-122/-59 -18/-54/-58 -19/-55/-60 -27/-124/-61 
f -25/-134/-69 -17/-60/-68 -18/-54/-58 -26/-122/-59 
s 1
f -23/-58/-57 -95/-53/-56 -96/-52/-55 -24/-51/-54 
f -95/-53/-56 -55/-50/-53 -56/-49/-52 -96/-48/-55 
f -49/-47/-51 -89/-46/-50 -96/-45/-55 -56/-44/-52 
f -89/-46/-50 -17/-60/-49 -24/-61/-54 -96/-45/-55 
f -22/-59/-48 -94/-43/-47 -95/-53/-56 -23/-58/-57 
f -94/-43/-47 -54/-42/-46 -55/-50/-53 -95/-53/-56 
f -21/-57/-45 -93/-41/-44 -94/-43/-47 -22/-59/-48 
f -93/-41/-44 -53/-40/-43 -54/-42/-46 -94/-43/-47 
f -20/-56/-42 -92/-39/-41 -93/-41/-44 -21/-57/-45 
f -92/-39/-41 -52/-38/-40 -53/-40/-43 -93/-41/-44 
f -19/-55/-39 -91/-37/-38 -92/-39/-41 -20/-56/-42 
f -91/-37/-38 -51/-36/-37 -52/-38/-40 -92/-39/-41 
f -18/-54/-36 -90/-35/-35 -91/-37/-38 -19/-55/-39 
f -90/-35/-35 -50/-34/-34 -51/-36/-37 -91/-37/-38 
f -17/-60/-49 -89/-46/-50 -90/-35/-35 -18/-54/-36 
f -89/-46/-50 -49/-47/-51 -50/-34/-34 -90/-35/-35 
f -88/-33/-33 -48/-95/-103 -129/-96/-104 -16/-32/-32 
f -8/-31/-31 -88/-33/-33 -16/-32/-32 -138/-30/-30 
f -88/-33/-33 -8/-31/-31 -137/-29/-29 -15/-28/-28 
f -48/-95/-103 -88/-33/-33 -15/-28/-28 -128/-93/-101 
f -87/-27/-27 -47/-90/-98 -128/-93/-101 -15/-28/-28 
f -7/-26/-26 -87/-27/-27 -15/-28/-28 -137/-29/-29 
f -87/-27/-27 -7/-26/-26 -136/-25/-25 -14/-24/-24 
f -47/-90/-98 -87/-27/-27 -14/-24/-24 -127/-88/-96 
f -86/-23/-23 -46/-86/-94 -127/-88/-96 -14/-24/-24 
f -6/-22/-22 -86/-23/-23 -14/-24/-24 -136/-25/-25 
f -86/-23/-23 -6/-22/-22 -135/-21/-21 -13/-20/-20 
f -46/-86/-94 -86/-23/-23 -13/-20/-20 -126/-84/-92 
f -85/-19/-19 -45/-82/-90 -126/-84/-92 -13/-20/-20 
f -5/-18/-18 -85/-19/-19 -13/-20/-20 -135/-21/-21 
f -85/-19/-19 -5/-18/-18 -134/-17/-17 -12/-16/-16 
f -45/-82/-90 -85/-19/-19 -12/-16/-16 -125/-80/-88 
f -84/-15/-15 -44/-78/-86 -125/-80/-88 -12/-16/-16 
f -4/-14/-14 -84/-15/-15 -12/-16/-16 -134/-17/-17 
f -84/-15/-15 -4/-14/-14 -133/-13/-13 -11/-12/-12 
f -44/-78/-86 -84/-15/-15 -11/-12/-12 -124/-76/-84 
f -83/-11/-11 -43/-74/-82 -124/-76/-84 -11/-12/-12 
f -3/-10/-10 -83/-11/-11 -11/-12/-12 -133/-13/-13 
f -83/-11/-11 -3/-10/-10 -132/-9/-9 -10/-8/-8 
f -43/-74/-82 -83/-11/-11 -10/-8/-8 -123/-72/-80 
f -82/-7/-7 -42/-70/-78 -123/-72/-80 -10/-8/-8 
f -2/-6/-6 -82/-7/-7 -10/-8/-8 -132/-9/-9 
f -82/-7/-7 -2/-6/-6 -131/-5/-5 -9/-4/-4 
f -42/-70/-78 -82/-7/-7 -9/-4/-4 -122/-68/-76 
f -81/-3/-3 -41/-66/-74 -122/-68/-76 -9/-4/-4 
f -1/-2/-2 -81/-3/-3 -9/-4/-4 -131/-5/-5 
f -81/-3/-3 -1/-2/-2 -138/-30/-30 -16/-32/-32 
f -41/-66/-74 -81/-3/-3 -16/-32/-32 -129/-96/-104 
s 2
f -55/-117/-125 -7/-114/-122 -137/-116/-124 
f -54/-113/-121 -6/-110/-118 -136/-115/-123 -55/-117/-125 
f -53/-112/-120 -5/-108/-116 -135/-111/-119 
f -52/-107/-115 -4/-104/-112 -134/-109/-117 -53/-112/-120 
f -51/-106/-114 -3/-102/-110 -133/-105/-113 
f -50/-101/-109 -2/-99/-107 -132/-103/-111 -51/-106/-114 
f -138/-120/-128 -1/-1/-1 -49/-119/-127 
f -49/-119/-127 -1/-1/-1 -131/-100/-108 
# 128 polygons - 16 triangles

