# 3ds Max Wavefront OBJ Exporter v0.94b - (c)2007 guruware
# File Created: 02.08.2010 11:52:31

mtllib mystical_truffles_low.mtl

#
# object mystical_truffles_low
#

v  -0.0024 0.6751 0.0000
v  0.3824 0.4260 0.0000
v  0.1165 0.4260 -0.3660
v  -0.3137 0.4260 -0.2262
v  -0.3137 0.4260 0.2262
v  0.1165 0.4260 0.3660
v  0.2319 0.0861 -0.1702
v  -0.0919 0.0861 -0.2755
v  -0.2920 0.0861 0.0000
v  -0.0919 0.0861 0.2755
v  0.2319 0.0861 0.1702
v  -0.0024 -0.1466 0.0000
v  0.2238 0.5863 0.0000
v  0.0675 0.5863 -0.2151
v  -0.1854 0.5863 -0.1330
v  -0.1854 0.5863 0.1330
v  0.0675 0.5863 0.2151
v  0.2937 0.4572 -0.2151
v  -0.1155 0.4572 -0.3481
v  -0.3684 0.4572 0.0000
v  -0.1155 0.4572 0.3481
v  0.2937 0.4572 0.2151
v  0.3777 0.2505 -0.1235
v  -0.0024 0.2505 -0.3996
v  -0.3824 0.2505 -0.1235
v  -0.2373 0.2505 0.3233
v  0.2325 0.2505 0.3233
v  0.3777 0.2505 0.1235
v  0.2325 0.2505 -0.3233
v  -0.2373 0.2505 -0.3233
v  -0.3824 0.2505 0.1235
v  -0.0024 0.2505 0.3996
v  0.0824 0.0641 -0.2608
v  -0.2243 0.0641 -0.1612
v  -0.2243 0.0641 0.1612
v  0.0824 0.0641 0.2608
v  0.2719 0.0641 -0.0000
v  0.0916 -0.0292 -0.0683
v  -0.0383 -0.0292 -0.1105
v  -0.1185 -0.0292 0.0000
v  -0.0383 -0.0292 0.1105
v  0.0916 -0.0292 0.0683
# 42 vertices

vn 0.0000 1.0000 0.0000
vn 0.5332 0.8460 0.0000
vn 0.1648 0.8460 -0.5071
vn 0.9197 0.3926 0.0000
vn 0.7051 0.4903 -0.5123
vn 0.2842 0.3926 -0.8747
vn -0.4313 0.8460 -0.3134
vn -0.2693 0.4903 -0.8289
vn -0.7441 0.3926 -0.5406
vn -0.4313 0.8460 0.3134
vn -0.8716 0.4903 0.0000
vn -0.7441 0.3926 0.5406
vn 0.1648 0.8460 0.5071
vn -0.2693 0.4903 0.8289
vn 0.2842 0.3926 0.8747
vn 0.7051 0.4903 0.5123
vn 0.9244 -0.2181 0.3130
vn 0.9244 -0.2181 -0.3130
vn 0.5882 -0.6866 0.4273
vn 0.6861 -0.7275 -0.0000
vn 0.5882 -0.6866 -0.4273
vn 0.5833 -0.2181 -0.7824
vn -0.0120 -0.2181 -0.9759
vn 0.2120 -0.7275 -0.6525
vn -0.2247 -0.6866 -0.6914
vn -0.5639 -0.2181 -0.7966
vn -0.9318 -0.2181 -0.2901
vn -0.5551 -0.7275 -0.4033
vn -0.7270 -0.6866 0.0000
vn -0.9318 -0.2181 0.2901
vn -0.5639 -0.2181 0.7966
vn -0.5551 -0.7275 0.4033
vn -0.2247 -0.6866 0.6914
vn -0.0120 -0.2181 0.9759
vn 0.5833 -0.2181 0.7824
vn 0.2120 -0.7275 0.6525
vn 0.0000 -1.0000 0.0000
vn -0.1693 -0.8366 -0.5210
vn 0.4432 -0.8366 -0.3220
vn -0.5479 -0.8366 0.0000
vn -0.1693 -0.8366 0.5210
vn 0.4432 -0.8366 0.3220
# 42 vertex normals

vt 0.3840 0.6057 0.9990
vt 0.3840 0.7166 1.0090
vt 0.2786 0.6399 1.0110
vt 0.3840 0.8221 1.0247
vt 0.2666 0.7671 1.0243
vt 0.1785 0.6722 1.0281
vt 0.3190 0.5162 1.0144
vt 0.1948 0.5440 1.0296
vt 0.2575 0.4314 1.0337
vt 0.4490 0.5162 1.0144
vt 0.3840 0.4070 1.0329
vt 0.5042 0.4345 1.0337
vt 0.4894 0.6399 1.0110
vt 0.5732 0.5440 1.0296
vt 0.5895 0.6722 1.0281
vt 0.5014 0.7671 1.0243
vt 0.4768 0.8906 0.9434
vt 0.2912 0.8906 0.9434
vt 0.6156 0.9226 0.8271
vt 0.3820 0.9919 0.8144
vt 0.1524 0.9226 0.8271
vt 0.1416 0.7812 0.9454
vt 0.0853 0.6050 0.9487
vt 0.0164 0.7222 0.8178
vt 0.0130 0.4834 0.8329
vt 0.1432 0.4301 0.9520
vt 0.2922 0.3225 0.9541
vt 0.1460 0.2761 0.8234
vt 0.3840 0.2162 0.8365
vt 0.4883 0.3147 0.9541
vt 0.6311 0.4207 0.9520
vt 0.6220 0.2760 0.8234
vt 0.7550 0.4834 0.8329
vt 0.6921 0.5972 0.9487
vt 0.6264 0.7812 0.9454
vt 0.7496 0.7301 0.8178
vt 0.8092 0.1971 0.0000
vt 0.9077 0.2534 0.0000
vt 0.7861 0.3082 0.0000
vt 0.9778 0.2934 0.0000
vt 0.8848 0.3648 0.0000
vt 0.7697 0.3873 0.0000
vt 0.8931 0.1209 0.0000
vt 0.9529 0.0665 0.0000
vt 0.9920 0.1771 0.0000
vt 0.7626 0.0938 0.0000
vt 0.7294 0.0201 0.0000
vt 0.8466 0.0171 0.0000
vt 0.6965 0.2095 0.0000
vt 0.6162 0.2184 0.0000
vt 0.6495 0.1060 0.0000
vt 0.6731 0.3208 0.0000
# 52 texture coords

g mystical_truffles_low
usemtl Mystical__tuffles
s 1
f -42/-52/-42 -30/-51/-41 -29/-50/-40 
f -30/-51/-41 -41/-49/-39 -25/-48/-38 
f -30/-51/-41 -25/-48/-38 -29/-50/-40 
f -29/-50/-40 -25/-48/-38 -40/-47/-37 
f -42/-52/-42 -29/-50/-40 -28/-46/-36 
f -29/-50/-40 -40/-47/-37 -24/-45/-35 
f -29/-50/-40 -24/-45/-35 -28/-46/-36 
f -28/-46/-36 -24/-45/-35 -39/-44/-34 
f -42/-52/-42 -28/-46/-36 -27/-43/-33 
f -28/-46/-36 -39/-44/-34 -23/-42/-32 
f -28/-46/-36 -23/-42/-32 -27/-43/-33 
f -27/-43/-33 -23/-42/-32 -38/-41/-31 
f -42/-52/-42 -27/-43/-33 -26/-40/-30 
f -27/-43/-33 -38/-41/-31 -22/-39/-29 
f -27/-43/-33 -22/-39/-29 -26/-40/-30 
f -26/-40/-30 -22/-39/-29 -37/-38/-28 
f -42/-52/-42 -26/-40/-30 -30/-51/-41 
f -26/-40/-30 -37/-38/-28 -21/-37/-27 
f -26/-40/-30 -21/-37/-27 -30/-51/-41 
f -30/-51/-41 -21/-37/-27 -41/-49/-39 
f -41/-49/-39 -15/-36/-26 -20/-35/-25 
f -15/-36/-26 -32/-34/-24 -6/-33/-23 
f -15/-36/-26 -6/-33/-23 -20/-35/-25 
f -20/-35/-25 -6/-33/-23 -36/-32/-22 
f -40/-47/-37 -14/-31/-21 -19/-30/-20 
f -14/-31/-21 -36/-32/-22 -10/-29/-19 
f -14/-31/-21 -10/-29/-19 -19/-30/-20 
f -19/-30/-20 -10/-29/-19 -35/-28/-18 
f -39/-44/-34 -13/-27/-17 -18/-26/-16 
f -13/-27/-17 -35/-28/-18 -9/-25/-15 
f -13/-27/-17 -9/-25/-15 -18/-26/-16 
f -18/-26/-16 -9/-25/-15 -34/-24/-14 
f -38/-41/-31 -12/-23/-13 -17/-22/-12 
f -12/-23/-13 -34/-24/-14 -8/-21/-11 
f -12/-23/-13 -8/-21/-11 -17/-22/-12 
f -17/-22/-12 -8/-21/-11 -33/-20/-10 
f -37/-38/-28 -11/-19/-9 -16/-18/-8 
f -11/-19/-9 -33/-20/-10 -7/-17/-7 
f -11/-19/-9 -7/-17/-7 -16/-18/-8 
f -16/-18/-8 -7/-17/-7 -32/-34/-24 
f -36/-32/-22 -14/-31/-21 -20/-35/-25 
f -14/-31/-21 -40/-47/-37 -25/-48/-38 
f -14/-31/-21 -25/-48/-38 -20/-35/-25 
f -20/-35/-25 -25/-48/-38 -41/-49/-39 
f -35/-28/-18 -13/-27/-17 -19/-30/-20 
f -13/-27/-17 -39/-44/-34 -24/-45/-35 
f -13/-27/-17 -24/-45/-35 -19/-30/-20 
f -19/-30/-20 -24/-45/-35 -40/-47/-37 
f -34/-24/-14 -12/-23/-13 -18/-26/-16 
f -12/-23/-13 -38/-41/-31 -23/-42/-32 
f -12/-23/-13 -23/-42/-32 -18/-26/-16 
f -18/-26/-16 -23/-42/-32 -39/-44/-34 
f -33/-20/-10 -11/-19/-9 -17/-22/-12 
f -11/-19/-9 -37/-38/-28 -22/-39/-29 
f -11/-19/-9 -22/-39/-29 -17/-22/-12 
f -17/-22/-12 -22/-39/-29 -38/-41/-31 
f -32/-34/-24 -15/-36/-26 -16/-18/-8 
f -15/-36/-26 -41/-49/-39 -21/-37/-27 
f -15/-36/-26 -21/-37/-27 -16/-18/-8 
f -16/-18/-8 -21/-37/-27 -37/-38/-28 
f -31/-16/-6 -4/-15/-5 -5/-14/-4 
f -4/-15/-5 -35/-13/-18 -10/-12/-19 
f -4/-15/-5 -10/-12/-19 -5/-14/-4 
f -5/-14/-4 -10/-12/-19 -36/-11/-22 
f -31/-16/-6 -3/-10/-3 -4/-15/-5 
f -3/-10/-3 -34/-9/-14 -9/-8/-15 
f -3/-10/-3 -9/-8/-15 -4/-15/-5 
f -4/-15/-5 -9/-8/-15 -35/-13/-18 
f -31/-16/-6 -2/-7/-2 -3/-10/-3 
f -2/-7/-2 -33/-6/-10 -8/-5/-11 
f -2/-7/-2 -8/-5/-11 -3/-10/-3 
f -3/-10/-3 -8/-5/-11 -34/-9/-14 
f -31/-16/-6 -1/-4/-1 -2/-7/-2 
f -1/-4/-1 -32/-3/-24 -7/-2/-7 
f -1/-4/-1 -7/-2/-7 -2/-7/-2 
f -2/-7/-2 -7/-2/-7 -33/-6/-10 
f -31/-16/-6 -5/-14/-4 -1/-4/-1 
f -5/-14/-4 -36/-11/-22 -6/-1/-23 
f -5/-14/-4 -6/-1/-23 -1/-4/-1 
f -1/-4/-1 -6/-1/-23 -32/-3/-24 
# 0 polygons - 80 triangles

