# 3ds Max Wavefront OBJ Exporter v0.94b - (c)2007 guruware
# File Created: 02.08.2010 11:55:08

mtllib russula_low.mtl

#
# object russula_pink_low
#

v  0.0248 -0.0852 -0.0416
v  0.0178 -0.0875 -0.0576
v  0.0009 -0.0879 -0.0644
v  -0.0160 -0.0879 -0.0575
v  -0.0230 -0.0879 -0.0413
v  -0.0160 -0.0879 -0.0229
v  0.0009 -0.0879 -0.0176
v  0.0178 -0.0875 -0.0249
v  0.0831 0.2813 0.0012
v  0.0585 0.2839 -0.0570
v  -0.0008 0.2918 -0.0821
v  -0.0586 0.3132 -0.0574
v  -0.0818 0.3277 0.0012
v  -0.0570 0.3271 0.0627
v  0.0021 0.3173 0.0852
v  0.0599 0.2970 0.0606
v  0.2597 0.3974 0.0037
v  0.1897 0.4164 -0.1892
v  -0.0003 0.4352 -0.2764
v  -0.1903 0.4326 -0.1919
v  -0.2690 0.4523 -0.0027
v  -0.1903 0.4475 0.1883
v  -0.0003 0.4461 0.2670
v  0.1897 0.4242 0.1896
v  -0.0002 0.3863 -0.0130
v  0.0617 0.0438 -0.0751
v  0.0643 0.0377 -0.0079
v  -0.0070 0.0475 -0.1034
v  -0.0687 0.0461 -0.0971
v  -0.0782 0.0142 -0.0079
v  -0.0577 0.0011 0.0307
v  -0.0081 0.0302 0.0525
v  0.0415 0.0418 0.0349
v  0.3278 0.4528 -0.0032
v  0.2279 0.4731 -0.2316
v  0.0026 0.4840 -0.3419
v  -0.1931 0.5095 -0.2227
v  -0.2828 0.5330 -0.0074
v  -0.2087 0.5046 0.2084
v  0.0026 0.5047 0.3111
v  0.2279 0.4867 0.2190
v  0.3580 0.3913 0.0030
v  0.2558 0.4295 -0.2564
v  0.0012 0.4603 -0.3872
v  -0.2534 0.4385 -0.2597
v  -0.3588 0.4611 -0.0062
v  -0.2534 0.4648 0.2499
v  0.0012 0.4578 0.3559
v  0.2558 0.4360 0.2519
v  0.2147 0.4462 0.0004
v  0.1455 0.4864 -0.1525
v  -0.0103 0.4984 -0.2433
v  -0.1343 0.4996 -0.1520
v  -0.1874 0.5050 -0.0100
v  -0.0103 0.4451 0.2214
v  0.1455 0.4436 0.1562
v  -0.1438 0.4392 0.1332
# 57 vertices

vn 0.6785 -0.2653 -0.6850
vn 0.8097 -0.1303 -0.5722
vn 0.9538 -0.2116 0.2134
vn 0.9610 -0.2699 -0.0603
vn 0.0090 -0.2786 -0.9604
vn 0.1183 -0.0827 -0.9895
vn -0.6039 -0.3871 -0.6968
vn -0.6689 -0.1324 -0.7315
vn -0.8690 -0.4912 -0.0597
vn -0.9602 -0.2499 0.1245
vn -0.5692 -0.5961 0.5663
vn -0.6022 -0.3796 0.7024
vn 0.0983 -0.5297 0.8424
vn 0.0433 -0.2787 0.9594
vn 0.6923 -0.4072 0.5957
vn 0.6439 -0.2503 0.7230
vn 0.0294 -0.9977 -0.0617
vn 0.0000 -1.0000 -0.0000
vn 0.0374 -0.9993 0.0001
vn 0.0230 -0.9997 0.0023
vn 0.0320 -0.9973 0.0667
vn -0.0443 -0.9854 0.1642
vn -0.0452 -0.9866 -0.1566
vn 0.7236 0.0179 -0.6899
vn 0.9954 -0.0886 0.0363
vn -0.0309 0.0894 -0.9955
vn -0.7454 0.1046 -0.6584
vn -0.9977 0.0139 0.0657
vn -0.7071 -0.0687 0.7037
vn -0.0614 -0.1112 0.9919
vn 0.6299 -0.1228 0.7669
vn 0.5502 -0.8333 0.0528
vn 0.3700 -0.8203 -0.4360
vn 0.1634 -0.9459 -0.2802
vn 0.1999 -0.9795 0.0239
vn -0.0883 -0.8360 -0.5416
vn -0.0236 -0.9331 -0.3587
vn -0.5040 -0.8386 -0.2067
vn -0.2296 -0.9616 -0.1506
vn -0.5514 -0.8288 0.0953
vn -0.2856 -0.9577 0.0350
vn -0.4169 -0.8209 0.3902
vn -0.2365 -0.9437 0.2313
vn -0.1112 -0.7864 0.6077
vn -0.0701 -0.9491 0.3070
vn 0.3012 -0.7952 0.5263
vn 0.1221 -0.9491 0.2904
vn 0.0107 -0.9860 -0.1666
vn -0.0617 -0.9980 0.0141
vn -0.0160 -0.9751 -0.2214
vn -0.0719 -0.9965 -0.0414
vn -0.1106 -0.9930 0.0421
vn -0.1342 -0.9823 0.1309
vn -0.0634 -0.9882 0.1395
vn -0.0014 -0.9850 0.1726
vn 0.4373 0.8545 -0.2802
vn 0.0220 0.9831 0.1816
vn -0.1408 0.9896 0.0289
vn 0.6131 0.7886 -0.0480
vn 0.0630 0.9352 -0.3484
vn 0.0882 0.9937 0.0694
vn -0.2643 0.9100 -0.3194
vn 0.2658 0.9527 0.1472
vn -0.3197 0.9474 -0.0131
vn 0.4234 0.8994 0.1082
vn 0.4638 0.8764 -0.1296
vn 0.0799 0.9873 0.1374
vn 0.0563 0.8984 -0.4356
vn 0.3018 0.9301 0.2095
vn -0.2281 0.9417 -0.2474
vn 0.0187 0.9644 0.2638
vn 0.8894 0.4571 -0.0092
vn 0.6269 0.6476 -0.4332
vn 0.0275 0.8532 -0.5209
vn -0.5300 0.6960 -0.4844
vn -0.6870 0.7254 -0.0417
vn -0.3856 0.8220 0.4192
vn -0.0496 0.9808 0.1887
vn 0.0209 0.7055 0.7084
vn 0.5979 0.6316 0.4936
# 80 vertex normals

vt 0.9551 0.5744 0.2538
vt 0.9893 0.6969 0.4987
vt 0.9346 0.6912 0.3905
vt 0.9206 0.5766 0.2012
vt 0.6897 0.5741 0.2718
vt 0.6589 0.7003 0.5021
vt 0.6017 0.6969 0.4987
vt 0.6582 0.5744 0.2538
vt 0.7154 0.5741 0.2518
vt 0.6987 0.6990 0.6253
vt 0.7607 0.5741 0.1975
vt 0.7578 0.6693 0.4817
vt 0.7918 0.5741 0.1047
vt 0.7921 0.6571 0.4545
vt 0.8322 0.5741 0.0032
vt 0.8392 0.6842 0.4167
vt 0.8817 0.5744 0.1113
vt 0.8887 0.6951 0.3969
vt 0.0496 0.0256 0.0000
vt 0.0797 0.0256 0.0000
vt 0.1004 0.0518 0.0000
vt 0.0232 0.0770 0.0000
vt 0.0973 0.0816 0.0000
vt 0.0735 0.1015 0.0000
vt 0.0427 0.0991 0.0000
vt 0.0260 0.0461 0.0000
vt 0.9908 0.9208 0.4836
vt 0.9430 0.9184 0.5001
vt 0.6544 0.9282 0.4802
vt 0.6032 0.9208 0.4836
vt 0.7038 0.9481 0.4914
vt 0.7511 0.9617 0.5001
vt 0.8002 0.9611 0.5073
vt 0.8481 0.9520 0.5001
vt 0.8959 0.9330 0.5058
vt 0.7594 0.2173 0.0000
vt 0.7116 0.2045 0.0000
vt 0.6980 0.0781 0.0000
vt 0.8467 0.1188 0.0000
vt 0.6674 0.2293 0.0000
vt 0.5479 0.1457 0.0000
vt 0.6546 0.2782 0.0000
vt 0.5078 0.3029 0.0000
vt 0.6794 0.3219 0.0000
vt 0.5862 0.4440 0.0000
vt 0.7293 0.3363 0.0000
vt 0.7420 0.4876 0.0000
vt 0.7719 0.3102 0.0000
vt 0.8827 0.4090 0.0000
vt 0.7848 0.2614 0.0000
vt 0.9272 0.2534 0.0000
vt 0.6859 0.0104 0.0000
vt 0.8939 0.0576 0.0000
vt 0.4846 0.0958 0.0000
vt 0.4355 0.3092 0.0000
vt 0.5405 0.4980 0.0000
vt 0.7494 0.5545 0.0000
vt 0.9383 0.4518 0.0000
vt 0.9950 0.2438 0.0000
vt 0.4943 0.5921 0.0000
vt 0.4223 0.6410 0.0000
vt 0.3205 0.5621 0.0000
vt 0.3416 0.4800 0.0000
vt 0.5391 0.7765 0.0000
vt 0.4641 0.7712 0.0000
vt 0.4190 0.9032 0.0000
vt 0.3763 0.8477 0.0000
vt 0.2452 0.9362 0.0000
vt 0.2627 0.8642 0.0000
vt 0.1639 0.8035 0.0000
vt 0.2954 0.7173 0.0000
vt 0.1204 0.6916 0.0000
vt 0.1610 0.5202 0.0000
vt 0.1940 0.5874 0.0000
vt 0.0562 0.6724 0.0000
vt 0.3414 0.4324 0.0000
vt 0.5293 0.5614 0.0000
vt 0.5885 0.7876 0.0000
vt 0.4429 0.9642 0.0000
vt 0.2276 0.9971 0.0000
vt 0.0388 0.8780 0.0000
vt 0.0977 0.8444 0.0000
vt 0.0060 0.6582 0.0000
vt 0.1261 0.4737 0.0000
# 84 texture coords

g russula_pink_low
usemtl russula_pink
s 1
f -56/-84/-80 -32/-83/-79 -31/-82/-78 -57/-81/-77 
f -55/-80/-76 -30/-79/-75 -32/-78/-79 -56/-77/-80 
f -54/-76/-74 -29/-75/-73 -30/-79/-75 -55/-80/-76 
f -53/-74/-72 -28/-73/-71 -29/-75/-73 -54/-76/-74 
f -52/-72/-70 -27/-71/-69 -28/-73/-71 -53/-74/-72 
f -51/-70/-68 -26/-69/-67 -27/-71/-69 -52/-72/-70 
f -50/-68/-66 -25/-67/-65 -26/-69/-67 -51/-70/-68 
f -57/-81/-77 -31/-82/-78 -25/-67/-65 -50/-68/-66 
s 8
f -51/-66/-64 -52/-65/-63 -53/-64/-62 -57/-63/-61 
f -53/-64/-62 -54/-62/-63 -55/-61/-60 -57/-63/-61 
f -55/-61/-60 -56/-60/-59 -57/-63/-61 
f -50/-59/-58 -51/-66/-64 -57/-63/-61 
s 1
f -31/-82/-78 -32/-83/-79 -48/-58/-57 -49/-57/-56 
f -32/-78/-79 -30/-79/-75 -47/-56/-55 -48/-55/-57 
f -30/-79/-75 -29/-75/-73 -46/-54/-54 -47/-56/-55 
f -29/-75/-73 -28/-73/-71 -45/-53/-53 -46/-54/-54 
f -27/-71/-69 -44/-52/-52 -45/-53/-53 -28/-73/-71 
f -26/-69/-67 -43/-51/-51 -44/-52/-52 -27/-71/-69 
f -25/-67/-65 -42/-50/-50 -43/-51/-51 -26/-69/-67 
f -25/-67/-65 -31/-82/-78 -49/-57/-56 -42/-50/-50 
s 2
f -49/-49/-49 -48/-48/-48 -40/-47/-47 -41/-46/-46 
f -48/-48/-48 -47/-45/-45 -39/-44/-44 -40/-47/-47 
f -47/-45/-45 -46/-43/-43 -38/-42/-42 -39/-44/-44 
f -46/-43/-43 -45/-41/-41 -37/-40/-40 -38/-42/-42 
f -45/-41/-41 -44/-39/-39 -36/-38/-38 -37/-40/-40 
f -44/-39/-39 -43/-37/-37 -35/-36/-36 -36/-38/-38 
f -43/-37/-37 -42/-35/-35 -34/-34/-34 -35/-36/-36 
f -42/-35/-35 -49/-49/-49 -41/-46/-46 -34/-34/-34 
f -41/-46/-46 -40/-47/-47 -15/-33/-33 -16/-32/-32 
f -39/-44/-44 -14/-31/-31 -15/-33/-33 -40/-47/-47 
f -39/-44/-44 -38/-42/-42 -13/-30/-30 -14/-31/-31 
f -37/-40/-40 -12/-29/-29 -13/-30/-30 -38/-42/-42 
f -36/-38/-38 -11/-28/-28 -12/-29/-29 -37/-40/-40 
f -35/-36/-36 -10/-27/-27 -11/-28/-28 -36/-38/-38 
f -34/-34/-34 -9/-26/-26 -10/-27/-27 -35/-36/-36 
f -41/-46/-46 -16/-32/-32 -9/-26/-26 -34/-34/-34 
s 1
f -23/-25/-25 -7/-24/-24 -8/-23/-23 -24/-22/-22 
f -22/-21/-21 -6/-20/-20 -7/-24/-24 -23/-25/-25 
f -21/-19/-19 -5/-18/-18 -6/-20/-20 -22/-21/-21 
f -20/-17/-17 -4/-16/-16 -5/-18/-18 -21/-19/-19 
f -1/-15/-15 -33/-14/-14 -4/-16/-16 
f -3/-13/-13 -33/-14/-14 -1/-15/-15 
f -17/-12/-12 -2/-11/-11 -3/-13/-13 -18/-10/-10 
f -17/-12/-12 -24/-22/-22 -8/-23/-23 -2/-11/-11 
f -23/-25/-25 -24/-22/-22 -16/-9/-9 -15/-8/-8 
f -14/-7/-7 -22/-21/-21 -23/-25/-25 -15/-8/-8 
f -21/-19/-19 -22/-21/-21 -14/-7/-7 -13/-6/-6 
f -20/-17/-17 -21/-19/-19 -13/-6/-6 -12/-5/-5 
f -11/-4/-4 -19/-3/-3 -20/-17/-17 -12/-5/-5 
f -10/-2/-2 -18/-10/-10 -19/-3/-3 -11/-4/-4 
f -9/-1/-1 -17/-12/-12 -18/-10/-10 -10/-2/-2 
f -24/-22/-22 -17/-12/-12 -9/-1/-1 -16/-9/-9 
f -7/-24/-24 -33/-14/-14 -8/-23/-23 
f -6/-20/-20 -33/-14/-14 -7/-24/-24 
f -5/-18/-18 -33/-14/-14 -6/-20/-20 
f -4/-16/-16 -33/-14/-14 -5/-18/-18 
f -2/-11/-11 -33/-14/-14 -3/-13/-13 
f -8/-23/-23 -33/-14/-14 -2/-11/-11 
f -19/-3/-3 -1/-15/-15 -4/-16/-16 -20/-17/-17 
f -3/-13/-13 -1/-15/-15 -19/-3/-3 -18/-10/-10 
# 50 polygons - 10 triangles

