# 3ds Max Wavefront OBJ Exporter v0.94b - (c)2007 guruware
# File Created: 02.08.2010 11:54:40

mtllib russula.mtl

#
# object russula_pink
#

v  0.0003 0.4138 -0.0116
v  0.3418 0.4666 -0.0018
v  0.2347 0.5236 -0.2433
v  0.0093 0.5111 -0.3567
v  -0.2005 0.5209 -0.2290
v  -0.2979 0.5430 -0.0085
v  -0.2113 0.5154 0.2133
v  0.0026 0.5160 0.3148
v  0.2289 0.5098 0.2233
v  0.3853 0.4048 0.0031
v  0.2645 0.4744 -0.2680
v  0.0061 0.4628 -0.4102
v  -0.2616 0.4521 -0.2705
v  -0.3783 0.4750 -0.0068
v  -0.2616 0.4803 0.2587
v  0.0012 0.4719 0.3684
v  0.2636 0.4407 0.2617
v  0.2147 0.4600 -0.0002
v  0.1448 0.4957 -0.1546
v  -0.0034 0.5078 -0.2370
v  -0.1327 0.5092 -0.1545
v  -0.1870 0.5215 -0.0097
v  -0.0060 0.4907 0.2128
v  0.1448 0.4617 0.1521
v  -0.1404 0.4646 0.1351
v  0.0468 -0.0614 -0.0496
v  0.0203 -0.0595 -0.0825
v  -0.0254 -0.0589 -0.0886
v  -0.0519 -0.0682 -0.0555
v  -0.0488 -0.0807 -0.0103
v  -0.0227 -0.0763 0.0131
v  0.0143 -0.0648 0.0137
v  0.0411 -0.0620 -0.0098
v  0.0008 -0.1335 -0.0444
v  0.0743 0.1441 -0.0375
v  0.0311 0.1497 -0.0872
v  -0.0377 0.1585 -0.0935
v  -0.0801 0.1592 -0.0437
v  -0.0766 0.1506 0.0253
v  -0.0338 0.1522 0.0656
v  0.0264 0.1551 0.0661
v  0.0691 0.1472 0.0259
v  0.1644 0.3480 -0.0660
v  0.0686 0.3615 -0.1672
v  -0.0698 0.3741 -0.1681
v  -0.1672 0.3889 -0.0686
v  -0.1667 0.3969 0.0707
v  -0.0685 0.3923 0.1692
v  0.0699 0.3774 0.1690
v  0.1649 0.3538 0.0723
v  0.2822 0.4341 -0.1156
v  0.1190 0.4573 -0.2954
v  -0.1178 0.4633 -0.2952
v  -0.2742 0.4615 -0.1135
v  -0.2848 0.4790 0.1151
v  -0.1163 0.4667 0.2702
v  0.1184 0.4626 0.2838
v  0.2943 0.4254 0.1292
v  0.2549 0.4934 -0.1066
v  0.1066 0.5481 -0.2849
v  -0.0935 0.5068 -0.2661
v  -0.2117 0.5341 -0.1002
v  -0.1232 0.4627 0.0421
v  -0.0574 0.4358 0.1281
v  0.1017 0.5013 0.2540
v  0.2670 0.4734 0.1140
v  0.3255 0.4737 -0.1348
v  0.1405 0.5174 -0.3539
v  -0.1234 0.4900 -0.3362
v  -0.2926 0.5048 -0.1291
v  -0.3075 0.5108 0.1250
v  -0.1263 0.4691 0.3019
v  0.1356 0.4907 0.3181
v  0.3376 0.4560 0.1414
v  0.1335 0.4747 -0.0601
v  0.0500 0.4731 -0.1506
v  -0.0539 0.4780 -0.1504
v  -0.1197 0.4850 -0.0637
v  0.0500 0.4374 0.1366
v  0.1335 0.4378 0.0545
v  -0.2293 0.5159 0.0915
v  -0.0996 0.4797 0.2371
v  0.0237 -0.1148 -0.0505
v  0.0104 -0.1151 -0.0651
v  -0.0104 -0.1151 -0.0666
v  -0.0237 -0.1174 -0.0519
v  -0.0229 -0.1205 -0.0310
v  -0.0097 -0.1194 -0.0185
v  0.0089 -0.1164 -0.0189
v  0.0223 -0.1150 -0.0315
v  0.0787 0.2788 -0.0299
v  0.0320 0.2846 -0.0762
v  -0.0332 0.3009 -0.0765
v  -0.0783 0.3209 -0.0301
v  -0.0775 0.3287 0.0368
v  -0.0307 0.3229 0.0836
v  0.0344 0.3062 0.0824
v  0.0795 0.2861 0.0356
v  0.0653 0.0253 -0.0443
v  0.0280 0.0300 -0.0915
v  -0.0369 0.0329 -0.1008
v  -0.0740 0.0215 -0.0535
v  -0.0693 0.0037 0.0107
v  -0.0325 0.0097 0.0434
v  0.0194 0.0246 0.0449
v  0.0570 0.0254 0.0121
v  0.2936 0.4711 -0.0006
v  0.1958 0.5286 -0.2048
v  0.0047 0.5270 -0.3122
v  -0.1702 0.5262 -0.1972
v  -0.2483 0.5402 -0.0091
v  -0.1807 0.4966 0.1798
v  -0.0019 0.5090 0.2736
v  0.1931 0.5041 0.1948
v  0.2998 0.4961 -0.1251
v  0.1283 0.5332 -0.3269
v  -0.1074 0.5041 -0.3072
v  -0.2534 0.5321 -0.1169
v  -0.2711 0.5276 0.1107
v  -0.1131 0.4872 0.2724
v  0.1234 0.5100 0.2912
v  0.3119 0.4760 0.1291
v  0.3688 0.4436 -0.0001
v  0.2538 0.5065 -0.2599
v  0.0089 0.4890 -0.3870
v  -0.2310 0.4950 -0.2520
v  -0.3393 0.5161 -0.0076
v  -0.2376 0.5051 0.2381
v  0.0029 0.4996 0.3445
v  0.2499 0.4830 0.2443
v  0.3417 0.4320 -0.1399
v  0.1479 0.4975 -0.3734
v  -0.1406 0.4646 -0.3591
v  -0.3305 0.4651 -0.1391
v  -0.3411 0.4797 0.1369
v  -0.1391 0.4432 0.3260
v  0.1430 0.4618 0.3398
v  0.3538 0.4247 0.1523
v  0.1264 0.4444 -0.0043
v  0.0863 0.4639 -0.0982
v  -0.0040 0.4661 -0.1460
v  -0.0809 0.4683 -0.0989
v  -0.1130 0.4769 -0.0112
v  -0.0049 0.4322 0.1248
v  0.0863 0.4319 0.0883
v  0.1973 0.4797 -0.0834
v  0.0766 0.5148 -0.2182
v  -0.0772 0.5042 -0.2136
v  -0.1705 0.5169 -0.0840
v  0.0755 0.4672 0.2034
v  0.2010 0.4575 0.0869
v  -0.0853 0.4353 0.0766
v  -0.1804 0.4897 0.0683
v  -0.0825 0.4630 0.1925
# 154 vertices

vn 0.9236 -0.2748 -0.2674
vn 0.8333 -0.3501 0.4279
vn 0.7286 -0.6144 0.3027
vn 0.7715 -0.5714 -0.2800
vn 0.3684 -0.5577 -0.7438
vn 0.4691 -0.2267 -0.8536
vn 0.4900 -0.0489 -0.8703
vn 0.9585 -0.1171 -0.2600
vn 0.8618 -0.1949 0.4683
vn -0.2619 -0.5890 -0.7645
vn -0.3351 -0.2694 -0.9029
vn -0.3690 -0.0529 -0.9279
vn -0.6694 -0.6554 -0.3498
vn -0.8693 -0.3409 -0.3578
vn -0.9413 -0.1179 -0.3163
vn -0.6114 -0.7571 0.2304
vn -0.8023 -0.4729 0.3643
vn -0.8798 -0.2114 0.4258
vn -0.1601 -0.7457 0.6468
vn -0.2371 -0.4834 0.8427
vn -0.3176 -0.2488 0.9150
vn 0.3578 -0.6708 0.6496
vn 0.3829 -0.4136 0.8260
vn 0.3574 -0.2341 0.9041
vn 0.0810 -0.9932 -0.0832
vn 0.9505 -0.0340 -0.3087
vn 0.8925 -0.1108 0.4372
vn 0.4585 0.0460 -0.8875
vn 0.3730 0.0603 -0.9259
vn 0.9332 -0.0276 -0.3584
vn 0.8893 -0.1033 0.4454
vn -0.3655 0.0748 -0.9278
vn -0.4166 0.1096 -0.9025
vn -0.9467 0.0107 -0.3220
vn -0.9530 0.0479 -0.2993
vn -0.9060 -0.0617 0.4189
vn -0.9130 -0.0246 0.4073
vn -0.3659 -0.1160 0.9234
vn -0.4151 -0.0821 0.9061
vn 0.3569 -0.1374 0.9240
vn 0.2999 -0.1169 0.9468
vn 0.5230 -0.8218 -0.2262
vn 0.4471 -0.8554 0.2616
vn 0.5107 -0.7955 0.3261
vn 0.5514 -0.8045 -0.2206
vn 0.1576 -0.8036 -0.5739
vn 0.1718 -0.8109 -0.5594
vn 0.1765 -0.9033 -0.3910
vn 0.1727 -0.9658 -0.1935
vn 0.0854 -0.9866 0.1390
vn -0.3606 -0.8136 -0.4561
vn -0.2899 -0.8199 -0.4937
vn -0.0741 -0.9763 -0.2035
vn -0.5784 -0.8134 -0.0615
vn -0.5423 -0.8285 -0.1394
vn -0.2488 -0.9680 -0.0328
vn -0.5320 -0.8060 0.2596
vn -0.5147 -0.8253 0.2322
vn -0.2082 -0.9727 0.1029
vn -0.3071 -0.7839 0.5396
vn -0.2626 -0.8190 0.5102
vn -0.0735 -0.9947 0.0718
vn 0.1021 -0.7699 0.6300
vn 0.0964 -0.8144 0.5722
vn -0.0210 -0.9680 0.2501
vn 0.1243 -0.9475 -0.2946
vn 0.2492 -0.8954 -0.3691
vn -0.1368 -0.9803 -0.1421
vn -0.2842 -0.9575 -0.0485
vn 0.0530 -0.9939 -0.0972
vn 0.0221 -0.9994 -0.0285
vn 0.0595 -0.9972 0.0454
vn -0.0855 -0.9952 0.0486
vn -0.0503 -0.9968 0.0625
vn -0.0043 -0.9998 0.0219
vn -0.0754 -0.9959 -0.0506
vn 0.1137 -0.9313 -0.3460
vn 0.0183 -0.9998 0.0113
vn -0.1058 -0.9939 0.0317
vn -0.1235 -0.9891 0.0806
vn -0.0546 -0.9922 0.1122
vn -0.0180 0.9668 0.2549
vn 0.3693 0.9280 0.0485
vn 0.3565 0.9267 -0.1187
vn 0.0489 0.9742 0.2203
vn -0.0695 0.9590 0.2748
vn -0.1871 0.9189 0.3474
vn -0.1478 0.9763 0.1578
vn -0.0119 0.9942 0.1065
vn 0.4359 0.8985 0.0513
vn -0.0165 0.9998 0.0079
vn 0.1368 0.9227 -0.3605
vn -0.1227 0.8658 -0.4850
vn -0.1633 0.9825 -0.0896
vn -0.1758 0.9014 0.3958
vn -0.0692 0.9524 0.2968
vn 0.0075 1.0000 -0.0037
vn -0.1556 0.9589 -0.2372
vn -0.2179 0.9253 -0.3104
vn 0.1278 0.9903 -0.0546
vn 0.1529 0.9748 0.1623
vn 0.3554 0.9196 0.1675
vn 0.1776 0.9841 -0.0044
vn -0.2645 0.9426 -0.2037
vn -0.2993 0.9536 -0.0332
vn 0.1752 0.9823 0.0657
vn 0.4153 0.9053 0.0896
vn 0.4148 0.8992 0.1390
vn 0.4548 0.8612 0.2271
vn 0.5135 0.8466 0.1403
vn 0.4414 0.8886 -0.1250
vn 0.3435 0.9389 0.0237
vn 0.4830 0.8559 0.1847
vn 0.0762 0.9859 0.1488
vn 0.1104 0.9575 -0.2666
vn 0.0481 0.9400 -0.3378
vn -0.0601 0.9124 -0.4048
vn 0.0258 0.9453 -0.3253
vn -0.0685 0.9449 -0.3202
vn 0.1238 0.9700 0.2094
vn 0.2772 0.9482 0.1552
vn -0.1341 0.9346 -0.3293
vn -0.0328 0.8730 -0.4866
vn -0.2319 0.9017 -0.3648
vn -0.1086 0.9702 -0.2167
vn -0.1077 0.9707 0.2148
vn -0.0741 0.9758 -0.2060
vn 0.3547 0.9350 -0.0012
vn -0.1924 0.9741 -0.1184
vn 0.7845 0.5833 -0.2104
vn 0.8826 0.3764 -0.2815
vn 0.7738 0.3829 -0.5046
vn 0.6563 0.6287 -0.4173
vn 0.8271 0.5620 -0.0091
vn 0.9170 0.3988 -0.0095
vn 0.2223 0.8025 -0.5537
vn 0.2599 0.7055 -0.6593
vn -0.1158 0.6692 -0.7341
vn -0.1003 0.7310 -0.6750
vn -0.2839 0.8251 -0.4885
vn -0.3528 0.7414 -0.5709
vn -0.5720 0.6457 -0.5058
vn -0.4866 0.7334 -0.4748
vn -0.5699 0.7601 -0.3124
vn -0.6449 0.6882 -0.3324
vn -0.7176 0.6922 -0.0772
vn -0.6429 0.7624 -0.0736
vn -0.4927 0.8334 0.2504
vn -0.6126 0.7440 0.2668
vn -0.3508 0.7691 0.5342
vn -0.2309 0.8640 0.4474
vn -0.0642 0.9863 0.1523
vn 0.1309 0.9805 0.1468
vn -0.2250 0.7928 0.5665
vn -0.2438 0.7220 0.6475
vn -0.1013 0.6627 0.7420
vn -0.0928 0.7687 0.6329
vn -0.0790 0.9832 0.1645
vn 0.3111 0.7226 0.6174
vn 0.3610 0.6179 0.6985
vn 0.6252 0.4715 0.6219
vn 0.5673 0.6164 0.5460
vn 0.7196 0.6532 0.2353
vn 0.8059 0.5099 0.3009
vn -0.2467 0.9192 0.3069
vn -0.2565 0.9225 0.2884
vn -0.2214 0.9453 0.2395
vn -0.1441 0.9231 0.3565
vn 0.0454 0.9287 0.3679
vn 0.2297 0.9175 0.3247
vn 0.3825 0.8954 0.2280
vn 0.4877 0.8672 0.1006
vn -0.0485 0.9411 -0.3348
vn -0.1673 0.9774 -0.1289
vn -0.1655 0.9862 -0.0102
vn 0.3843 0.9201 0.0760
vn 0.4344 0.8901 -0.1381
vn 0.0768 0.9649 -0.2512
# 178 vertex normals

vt 0.9746 0.6348 0.3360
vt 0.9311 0.6343 0.2750
vt 0.9258 0.5755 0.1563
vt 0.9626 0.5755 0.2275
vt 0.6442 0.5716 0.2048
vt 0.6986 0.5742 0.2628
vt 0.6768 0.6364 0.3816
vt 0.6279 0.6367 0.3607
vt 0.6602 0.7113 0.4684
vt 0.6164 0.6916 0.4987
vt 0.9842 0.7074 0.4234
vt 0.9360 0.7075 0.3777
vt 0.7272 0.5741 0.2618
vt 0.7153 0.6369 0.4128
vt 0.7065 0.7138 0.5162
vt 0.7627 0.5741 0.2247
vt 0.7578 0.6291 0.3891
vt 0.7540 0.7043 0.5052
vt 0.8009 0.5741 0.1511
vt 0.8003 0.6186 0.3096
vt 0.7999 0.6893 0.4329
vt 0.8367 0.5741 0.0540
vt 0.8385 0.6224 0.2448
vt 0.8409 0.6943 0.3964
vt 0.8816 0.5742 0.0572
vt 0.8851 0.6319 0.2320
vt 0.8888 0.7068 0.3751
vt 0.0378 0.0359 0.0000
vt 0.0615 0.0635 0.0000
vt 0.0246 0.0615 0.0000
vt 0.0646 0.0256 0.0000
vt 0.0900 0.0387 0.0000
vt 0.0988 0.0667 0.0000
vt 0.0854 0.0916 0.0000
vt 0.0581 0.1003 0.0000
vt 0.0329 0.0880 0.0000
vt 0.9891 0.8068 0.4682
vt 0.9402 0.8094 0.4483
vt 0.6542 0.8116 0.4912
vt 0.6054 0.8069 0.4925
vt 0.6535 0.9245 0.4819
vt 0.6046 0.9190 0.4851
vt 0.9916 0.9196 0.4918
vt 0.9441 0.9257 0.5029
vt 0.7036 0.8189 0.5248
vt 0.7037 0.9382 0.4858
vt 0.7525 0.8195 0.5246
vt 0.7521 0.9549 0.4957
vt 0.8000 0.8123 0.4859
vt 0.8003 0.9614 0.5037
vt 0.8446 0.8136 0.4696
vt 0.8489 0.9566 0.5037
vt 0.8927 0.8161 0.4549
vt 0.8967 0.9425 0.5029
vt 0.7539 0.1547 0.0000
vt 0.8295 0.2127 0.0000
vt 0.7721 0.2393 0.0000
vt 0.7355 0.2109 0.0000
vt 0.6895 0.2169 0.0000
vt 0.6562 0.1644 0.0000
vt 0.6041 0.0825 0.0000
vt 0.7811 0.0662 0.0000
vt 0.9157 0.1684 0.0000
vt 0.6610 0.2538 0.0000
vt 0.5944 0.2390 0.0000
vt 0.4939 0.2134 0.0000
vt 0.6670 0.3001 0.0000
vt 0.6070 0.3367 0.0000
vt 0.5175 0.3885 0.0000
vt 0.7044 0.3291 0.0000
vt 0.6843 0.3975 0.0000
vt 0.6545 0.4960 0.0000
vt 0.7506 0.3233 0.0000
vt 0.7815 0.3858 0.0000
vt 0.8281 0.4757 0.0000
vt 0.7783 0.2858 0.0000
vt 0.8417 0.3085 0.0000
vt 0.9358 0.3395 0.0000
vt 0.6859 0.0104 0.0000
vt 0.5852 0.0531 0.0000
vt 0.7899 0.0340 0.0000
vt 0.8939 0.0576 0.0000
vt 0.4846 0.0958 0.0000
vt 0.4600 0.2025 0.0000
vt 0.4355 0.3092 0.0000
vt 0.4880 0.4036 0.0000
vt 0.5405 0.4980 0.0000
vt 0.6449 0.5263 0.0000
vt 0.7494 0.5545 0.0000
vt 0.8438 0.5032 0.0000
vt 0.9383 0.4518 0.0000
vt 0.9666 0.3478 0.0000
vt 0.9950 0.2438 0.0000
vt 0.9444 0.1507 0.0000
vt 0.3947 0.5688 0.0000
vt 0.4143 0.5393 0.0000
vt 0.4766 0.6035 0.0000
vt 0.4478 0.6243 0.0000
vt 0.3709 0.6030 0.0000
vt 0.4105 0.6490 0.0000
vt 0.3176 0.5807 0.0000
vt 0.3278 0.5371 0.0000
vt 0.3355 0.5029 0.0000
vt 0.4799 0.6952 0.0000
vt 0.5128 0.6858 0.0000
vt 0.5152 0.7702 0.0000
vt 0.4832 0.7669 0.0000
vt 0.4401 0.7043 0.0000
vt 0.4405 0.7600 0.0000
vt 0.4496 0.8246 0.0000
vt 0.4763 0.8406 0.0000
vt 0.4101 0.8919 0.0000
vt 0.3927 0.8658 0.0000
vt 0.4171 0.8056 0.0000
vt 0.3698 0.8336 0.0000
vt 0.3258 0.8878 0.0000
vt 0.3309 0.9193 0.0000
vt 0.2483 0.9195 0.0000
vt 0.2565 0.8875 0.0000
vt 0.3191 0.8523 0.0000
vt 0.2658 0.8483 0.0000
vt 0.2406 0.7950 0.0000
vt 0.2149 0.8312 0.0000
vt 0.1764 0.7933 0.0000
vt 0.2233 0.7633 0.0000
vt 0.2775 0.7965 0.0000
vt 0.2944 0.7181 0.0000
vt 0.1932 0.7375 0.0000
vt 0.1467 0.7464 0.0000
vt 0.1445 0.6930 0.0000
vt 0.2031 0.7030 0.0000
vt 0.1329 0.6179 0.0000
vt 0.1093 0.5979 0.0000
vt 0.1702 0.5368 0.0000
vt 0.1855 0.5658 0.0000
vt 0.1626 0.6406 0.0000
vt 0.2068 0.6021 0.0000
vt 0.1047 0.6837 0.0000
vt 0.0759 0.6756 0.0000
vt 0.2543 0.5374 0.0000
vt 0.2498 0.5036 0.0000
vt 0.2597 0.5773 0.0000
vt 0.4266 0.5165 0.0000
vt 0.4353 0.4969 0.0000
vt 0.5293 0.5614 0.0000
vt 0.4970 0.5874 0.0000
vt 0.3380 0.4764 0.0000
vt 0.3414 0.4324 0.0000
vt 0.5378 0.6794 0.0000
vt 0.5589 0.6745 0.0000
vt 0.5885 0.7876 0.0000
vt 0.5407 0.7753 0.0000
vt 0.4974 0.8579 0.0000
vt 0.5157 0.8759 0.0000
vt 0.4429 0.9642 0.0000
vt 0.4232 0.9189 0.0000
vt 0.3337 0.9502 0.0000
vt 0.3352 0.9806 0.0000
vt 0.2276 0.9971 0.0000
vt 0.2397 0.9493 0.0000
vt 0.1523 0.9139 0.0000
vt 0.1332 0.9375 0.0000
vt 0.0388 0.8780 0.0000
vt 0.0846 0.8499 0.0000
vt 0.1719 0.8891 0.0000
vt 0.1118 0.8336 0.0000
vt 0.0497 0.7633 0.0000
vt 0.0224 0.7681 0.0000
vt 0.0060 0.6582 0.0000
vt 0.0498 0.6688 0.0000
vt 0.0783 0.7583 0.0000
vt 0.0873 0.5812 0.0000
vt 0.0661 0.5660 0.0000
vt 0.1261 0.4737 0.0000
vt 0.1543 0.5129 0.0000
vt 0.2425 0.4766 0.0000
vt 0.2338 0.4531 0.0000
vt 0.3461 0.6401 0.0000
vt 0.3644 0.6771 0.0000
vt 0.3080 0.6354 0.0000
vt 0.3939 0.7098 0.0000
vt 0.3830 0.7443 0.0000
vt 0.3786 0.7787 0.0000
vt 0.3404 0.7883 0.0000
vt 0.3114 0.8097 0.0000
vt 0.2032 0.6655 0.0000
vt 0.2406 0.6481 0.0000
vt 0.2700 0.6223 0.0000
vt 0.1924 0.8621 0.0000
vt 0.1409 0.8157 0.0000
vt 0.1095 0.7530 0.0000
# 191 texture coords

g russula_pink
usemtl russula_pink
s 1
f -129/-191/-178 -122/-190/-177 -65/-189/-176 -72/-188/-175 
f -72/-187/-175 -71/-186/-174 -128/-185/-173 -129/-184/-178 
f -129/-184/-178 -128/-185/-173 -55/-183/-172 -56/-182/-171 
f -56/-181/-171 -49/-180/-170 -122/-190/-177 -129/-191/-178 
f -71/-186/-174 -70/-179/-169 -127/-178/-168 -128/-185/-173 
f -128/-185/-173 -127/-178/-168 -54/-177/-167 -55/-183/-172 
f -70/-179/-169 -69/-176/-166 -126/-175/-165 -127/-178/-168 
f -127/-178/-168 -126/-175/-165 -53/-174/-164 -54/-177/-167 
f -69/-176/-166 -68/-173/-163 -125/-172/-162 -126/-175/-165 
f -126/-175/-165 -125/-172/-162 -52/-171/-161 -53/-174/-164 
f -68/-173/-163 -67/-170/-160 -124/-169/-159 -125/-172/-162 
f -125/-172/-162 -124/-169/-159 -51/-168/-158 -52/-171/-161 
f -67/-170/-160 -66/-167/-157 -123/-166/-156 -124/-169/-159 
f -124/-169/-159 -123/-166/-156 -50/-165/-155 -51/-168/-158 
f -66/-167/-157 -65/-189/-176 -122/-190/-177 -123/-166/-156 
f -123/-166/-156 -122/-190/-177 -49/-180/-170 -50/-165/-155 
f -66/-164/-157 -121/-163/-154 -65/-162/-176 
f -66/-164/-157 -67/-161/-160 -121/-163/-154 
f -68/-160/-163 -121/-163/-154 -67/-161/-160 
f -68/-160/-163 -69/-159/-166 -121/-163/-154 
f -70/-158/-169 -121/-163/-154 -69/-159/-166 
f -70/-158/-169 -71/-157/-174 -121/-163/-154 
f -72/-156/-175 -121/-163/-154 -71/-157/-174 
f -72/-156/-175 -65/-162/-176 -121/-163/-154 
f -120/-155/-153 -113/-154/-152 -49/-180/-170 -56/-181/-171 
f -56/-182/-171 -55/-183/-172 -119/-153/-151 -120/-152/-153 
f -120/-152/-153 -119/-153/-151 -63/-151/-150 -64/-150/-149 
f -64/-149/-149 -57/-148/-148 -113/-154/-152 -120/-155/-153 
f -55/-183/-172 -54/-177/-167 -118/-147/-147 -119/-153/-151 
f -119/-153/-151 -118/-147/-147 -62/-146/-146 -63/-151/-150 
f -54/-177/-167 -53/-174/-164 -117/-145/-145 -118/-147/-147 
f -118/-147/-147 -117/-145/-145 -61/-144/-144 -62/-146/-146 
f -53/-174/-164 -52/-171/-161 -116/-143/-143 -117/-145/-145 
f -117/-145/-145 -116/-143/-143 -60/-142/-142 -61/-144/-144 
f -52/-171/-161 -51/-168/-158 -115/-141/-141 -116/-143/-143 
f -116/-143/-143 -115/-141/-141 -59/-140/-140 -60/-142/-142 
f -51/-168/-158 -50/-165/-155 -114/-139/-139 -115/-141/-141 
f -115/-141/-141 -114/-139/-139 -58/-138/-138 -59/-140/-140 
f -50/-165/-155 -49/-180/-170 -113/-154/-152 -114/-139/-139 
f -114/-139/-139 -113/-154/-152 -57/-148/-148 -58/-138/-138 
s 2
f -112/-137/-137 -105/-136/-136 -57/-135/-135 -64/-134/-134 
f -64/-134/-134 -63/-133/-133 -111/-132/-132 -112/-137/-137 
f -112/-137/-137 -111/-132/-132 -103/-131/-131 -104/-130/-130 
f -104/-130/-130 -97/-129/-129 -105/-136/-136 -112/-137/-137 
f -63/-133/-133 -62/-128/-128 -110/-127/-127 -111/-132/-132 
f -111/-132/-132 -110/-127/-127 -102/-126/-126 -103/-131/-131 
f -62/-128/-128 -61/-125/-125 -109/-124/-124 -110/-127/-127 
f -110/-127/-127 -109/-124/-124 -101/-123/-123 -102/-126/-126 
f -61/-125/-125 -60/-122/-122 -108/-121/-121 -109/-124/-124 
f -109/-124/-124 -108/-121/-121 -100/-120/-120 -101/-123/-123 
f -60/-122/-122 -59/-119/-119 -107/-118/-118 -108/-121/-121 
f -108/-121/-121 -107/-118/-118 -99/-117/-117 -100/-120/-120 
f -59/-119/-119 -58/-116/-116 -106/-115/-115 -107/-118/-118 
f -107/-118/-118 -106/-115/-115 -98/-114/-114 -99/-117/-117 
f -58/-116/-116 -57/-135/-135 -105/-136/-136 -106/-115/-115 
f -106/-115/-115 -105/-136/-136 -97/-129/-129 -98/-114/-114 
f -144/-113/-113 -103/-131/-131 -23/-112/-112 
f -24/-111/-111 -145/-110/-110 -97/-129/-129 -104/-130/-130 
f -143/-109/-109 -103/-131/-131 -102/-126/-126 -22/-108/-108 
f -142/-107/-107 -101/-123/-123 -21/-106/-106 
f -141/-105/-105 -101/-123/-123 -100/-120/-120 -20/-104/-104 
f -140/-103/-103 -99/-117/-117 -19/-102/-102 
f -139/-101/-101 -99/-117/-117 -98/-114/-114 -18/-100/-100 
f -138/-99/-99 -97/-129/-129 -17/-98/-98 
s 1
f -96/-97/-97 -40/-96/-96 -152/-95/-95 -47/-94/-94 
f -9/-93/-93 -96/-97/-97 -47/-94/-94 -136/-92/-92 
f -96/-97/-97 -9/-93/-93 -137/-91/-91 -48/-90/-90 
f -40/-96/-96 -96/-97/-97 -48/-90/-90 -153/-89/-89 
f -95/-88/-88 -39/-87/-87 -151/-86/-86 -46/-85/-85 
f -8/-84/-84 -95/-88/-88 -46/-85/-85 -135/-83/-83 
f -95/-88/-88 -8/-84/-84 -136/-92/-92 -47/-94/-94 
f -39/-87/-87 -95/-88/-88 -47/-94/-94 -152/-95/-95 
f -94/-82/-82 -38/-81/-81 -150/-80/-80 -45/-79/-79 
f -7/-78/-78 -94/-82/-82 -45/-79/-79 -134/-77/-77 
f -94/-82/-82 -7/-78/-78 -135/-83/-83 -46/-85/-85 
f -38/-81/-81 -94/-82/-82 -46/-85/-85 -151/-86/-86 
f -93/-76/-76 -37/-75/-75 -149/-74/-74 -44/-73/-73 
f -6/-72/-72 -93/-76/-76 -44/-73/-73 -133/-71/-71 
f -93/-76/-76 -6/-72/-72 -134/-77/-77 -45/-79/-79 
f -37/-75/-75 -93/-76/-76 -45/-79/-79 -150/-80/-80 
f -92/-70/-70 -2/-69/-69 -130/-68/-68 -3/-67/-67 
f -12/-66/-66 -92/-70/-70 -3/-67/-67 -154/-65/-65 
f -92/-70/-70 -12/-66/-66 -133/-71/-71 -2/-69/-69 
f -91/-64/-64 -1/-63/-63 -132/-62/-62 -11/-61/-61 
f -3/-67/-67 -91/-64/-64 -11/-61/-61 -154/-65/-65 
f -91/-64/-64 -3/-67/-67 -130/-68/-68 -1/-63/-63 
f -90/-60/-60 -34/-59/-59 -146/-58/-58 -41/-57/-57 
f -5/-56/-56 -90/-60/-60 -41/-57/-57 -131/-55/-55 
f -90/-60/-60 -5/-56/-56 -132/-62/-62 -42/-54/-54 
f -34/-59/-59 -90/-60/-60 -42/-54/-54 -147/-53/-53 
f -89/-52/-52 -33/-51/-51 -153/-89/-89 -48/-90/-90 
f -4/-50/-50 -89/-52/-52 -48/-90/-90 -137/-91/-91 
f -89/-52/-52 -4/-50/-50 -131/-55/-55 -41/-57/-57 
f -33/-51/-51 -89/-52/-52 -41/-57/-57 -146/-58/-58 
f -88/-49/-49 -24/-48/-48 -144/-47/-47 -31/-46/-46 
f -40/-96/-96 -88/-49/-49 -31/-46/-46 -152/-95/-95 
f -88/-49/-49 -40/-96/-96 -153/-89/-89 -32/-45/-45 
f -24/-48/-48 -88/-49/-49 -32/-45/-45 -145/-44/-44 
f -87/-43/-43 -23/-42/-42 -143/-41/-41 -30/-40/-40 
f -39/-87/-87 -87/-43/-43 -30/-40/-40 -151/-86/-86 
f -87/-43/-43 -39/-87/-87 -152/-95/-95 -31/-46/-46 
f -23/-42/-42 -87/-43/-43 -31/-46/-46 -144/-47/-47 
f -86/-39/-39 -22/-38/-38 -142/-37/-37 -29/-36/-36 
f -38/-81/-81 -86/-39/-39 -29/-36/-36 -150/-80/-80 
f -86/-39/-39 -38/-81/-81 -151/-86/-86 -30/-40/-40 
f -22/-38/-38 -86/-39/-39 -30/-40/-40 -143/-41/-41 
f -85/-35/-35 -21/-34/-34 -141/-33/-33 -28/-32/-32 
f -37/-75/-75 -85/-35/-35 -28/-32/-32 -149/-74/-74 
f -85/-35/-35 -37/-75/-75 -150/-80/-80 -29/-36/-36 
f -21/-34/-34 -85/-35/-35 -29/-36/-36 -142/-37/-37 
f -84/-31/-31 -20/-30/-30 -140/-29/-29 -27/-28/-28 
f -36/-27/-27 -84/-31/-31 -27/-28/-28 -148/-26/-26 
f -84/-31/-31 -36/-27/-27 -149/-74/-74 -28/-32/-32 
f -20/-30/-30 -84/-31/-31 -28/-32/-32 -141/-33/-33 
f -83/-25/-25 -19/-24/-24 -139/-23/-23 -26/-22/-22 
f -35/-21/-21 -83/-25/-25 -26/-22/-22 -147/-53/-53 
f -83/-25/-25 -35/-21/-21 -148/-26/-26 -27/-28/-28 
f -19/-24/-24 -83/-25/-25 -27/-28/-28 -140/-29/-29 
f -82/-20/-20 -18/-19/-19 -138/-18/-18 -25/-17/-17 
f -34/-59/-59 -82/-20/-20 -25/-17/-17 -146/-58/-58 
f -82/-20/-20 -34/-59/-59 -147/-53/-53 -26/-22/-22 
f -18/-19/-19 -82/-20/-20 -26/-22/-22 -139/-23/-23 
f -81/-16/-16 -17/-15/-15 -145/-44/-44 -32/-45/-45 
f -33/-51/-51 -81/-16/-16 -32/-45/-45 -153/-89/-89 
f -81/-16/-16 -33/-51/-51 -146/-58/-58 -25/-17/-17 
f -17/-15/-15 -81/-16/-16 -25/-17/-17 -138/-18/-18 
f -80/-14/-14 -9/-93/-93 -136/-92/-92 -15/-13/-13 
f -16/-12/-12 -80/-14/-14 -15/-13/-13 -154/-65/-65 
f -80/-14/-14 -16/-12/-12 -137/-91/-91 -9/-93/-93 
f -79/-11/-11 -8/-84/-84 -135/-83/-83 -14/-10/-10 
f -15/-13/-13 -79/-11/-11 -14/-10/-10 -154/-65/-65 
f -79/-11/-11 -15/-13/-13 -136/-92/-92 -8/-84/-84 
f -78/-9/-9 -7/-78/-78 -134/-77/-77 -13/-8/-8 
f -14/-10/-10 -78/-9/-9 -13/-8/-8 -154/-65/-65 
f -78/-9/-9 -14/-10/-10 -135/-83/-83 -7/-78/-78 
f -77/-7/-7 -6/-72/-72 -133/-71/-71 -12/-66/-66 
f -13/-8/-8 -77/-7/-7 -12/-66/-66 -154/-65/-65 
f -77/-7/-7 -13/-8/-8 -134/-77/-77 -6/-72/-72 
f -76/-6/-6 -5/-56/-56 -131/-55/-55 -10/-5/-5 
f -11/-61/-61 -76/-6/-6 -10/-5/-5 -154/-65/-65 
f -76/-6/-6 -11/-61/-61 -132/-62/-62 -5/-56/-56 
f -75/-4/-4 -4/-50/-50 -137/-91/-91 -16/-12/-12 
f -10/-5/-5 -75/-4/-4 -16/-12/-12 -154/-65/-65 
f -75/-4/-4 -10/-5/-5 -131/-55/-55 -4/-50/-50 
f -74/-3/-3 -2/-69/-69 -133/-71/-71 -44/-73/-73 
f -36/-27/-27 -74/-3/-3 -44/-73/-73 -149/-74/-74 
f -74/-3/-3 -36/-27/-27 -148/-26/-26 -43/-2/-2 
f -2/-69/-69 -74/-3/-3 -43/-2/-2 -130/-68/-68 
f -73/-1/-1 -1/-63/-63 -130/-68/-68 -43/-2/-2 
f -35/-21/-21 -73/-1/-1 -43/-2/-2 -148/-26/-26 
f -73/-1/-1 -35/-21/-21 -147/-53/-53 -42/-54/-54 
f -1/-63/-63 -73/-1/-1 -42/-54/-54 -132/-62/-62 
s 2
f -144/-113/-113 -24/-111/-111 -104/-130/-130 -103/-131/-131 
f -145/-110/-110 -17/-98/-98 -97/-129/-129 
f -143/-109/-109 -23/-112/-112 -103/-131/-131 
f -142/-107/-107 -22/-108/-108 -102/-126/-126 -101/-123/-123 
f -141/-105/-105 -21/-106/-106 -101/-123/-123 
f -140/-103/-103 -20/-104/-104 -100/-120/-120 -99/-117/-117 
f -139/-101/-101 -19/-102/-102 -99/-117/-117 
f -138/-99/-99 -18/-100/-100 -98/-114/-114 -97/-129/-129 
# 144 polygons - 16 triangles

